<svg version="1.1" viewBox="0.0 0.0 600.0 371.0" fill="none" stroke="none" stroke-linecap="square" stroke-miterlimit="10" width="600" height="371" xmlns:xlink="http://www.w3.org/1999/xlink" xmlns="http://www.w3.org/2000/svg"><path fill="#ffffff" d="M0 0L600.0 0L600.0 371.0L0 371.0L0 0Z" fill-rule="nonzero"/><path stroke="#cccccc" stroke-width="1.0" stroke-linecap="butt" d="M151.5 69.5L151.5 300.5" fill-rule="nonzero"/><path stroke="#cccccc" stroke-width="1.0" stroke-linecap="butt" d="M244.5 69.5L244.5 300.5" fill-rule="nonzero"/><path stroke="#cccccc" stroke-width="1.0" stroke-linecap="butt" d="M337.5 69.5L337.5 300.5" fill-rule="nonzero"/><path stroke="#cccccc" stroke-width="1.0" stroke-linecap="butt" d="M429.5 69.5L429.5 300.5" fill-rule="nonzero"/><path stroke="#cccccc" stroke-width="1.0" stroke-linecap="butt" d="M522.5 69.5L522.5 300.5" fill-rule="nonzero"/><path stroke="#333333" stroke-width="1.0" stroke-linecap="butt" d="M77.5 300.5L522.5 300.5" fill-rule="nonzero"/><path stroke="#cccccc" stroke-width="1.0" stroke-linecap="butt" d="M77.5 242.5L522.5 242.5" fill-rule="nonzero"/><path stroke="#cccccc" stroke-width="1.0" stroke-linecap="butt" d="M77.5 185.5L522.5 185.5" fill-rule="nonzero"/><path stroke="#cccccc" stroke-width="1.0" stroke-linecap="butt" d="M77.5 127.5L522.5 127.5" fill-rule="nonzero"/><path stroke="#cccccc" stroke-width="1.0" stroke-linecap="butt" d="M77.5 69.5L522.5 69.5" fill-rule="nonzero"/><clipPath id="id_0"><path d="M77.55 69.916664L522.45 69.916664L522.45 300.45L77.55 300.45L77.55 69.916664Z" clip-rule="nonzero"/></clipPath><path stroke="#4285f4" stroke-width="2.0" stroke-linecap="butt" clip-path="url(#id_0)" d="M77.55 251.87663C77.55 251.87663 126.98333 159.47195 151.7 139.14583C176.41667 118.8197 522.45 93.016106 522.45 93.016106" fill-rule="nonzero"/><path stroke="#4a86e8" stroke-width="2.0" stroke-linecap="butt" stroke-dasharray="8.0,6.0" clip-path="url(#id_0)" d="M77.55 222.9908C77.55 222.9908 126.98333 176.00157 151.7 163.38641C176.41667 150.77124 522.45 82.95332 522.45 82.95332" fill-rule="nonzero"/><path stroke="#ff0000" stroke-width="2.0" stroke-linecap="butt" clip-path="url(#id_0)" d="M77.55 276.682C77.55 276.682 126.98333 223.40038 151.7 208.39804C176.41667 193.3957 522.45 99.74768 522.45 99.74768" fill-rule="nonzero"/><path stroke="#ff0000" stroke-width="2.0" stroke-linecap="butt" stroke-dasharray="8.0,6.0" clip-path="url(#id_0)" d="M77.55 238.02158C77.55 238.02158 126.98333 225.43523 151.7 221.01974C176.41667 216.60426 522.45 173.56445 522.45 173.56445" fill-rule="nonzero"/><path fill="#000000" fill-opacity="0.0" clip-path="url(#id_0)" d="M80.55 251.87663C80.55 253.53348 79.206856 254.87663 77.55 254.87663C75.89314 254.87663 74.55 253.53348 74.55 251.87663C74.55 250.21977 75.89314 248.87663 77.55 248.87663C79.206856 248.87663 80.55 250.21977 80.55 251.87663Z" fill-rule="nonzero"/><path fill="#000000" fill-opacity="0.0" clip-path="url(#id_0)" d="M154.7 139.14583C154.7 140.80267 153.35686 142.14583 151.7 142.14583C150.04315 142.14583 148.7 140.80267 148.7 139.14583C148.7 137.48897 150.04315 136.14583 151.7 136.14583C153.35686 136.14583 154.7 137.48897 154.7 139.14583Z" fill-rule="nonzero"/><path fill="#000000" fill-opacity="0.0" clip-path="url(#id_0)" d="M525.45 93.016106C525.45 94.67296 524.1069 96.016106 522.45 96.016106C520.79315 96.016106 519.45 94.67296 519.45 93.016106C519.45 91.35925 520.79315 90.016106 522.45 90.016106C524.1069 90.016106 525.45 91.35925 525.45 93.016106Z" fill-rule="nonzero"/><path fill="#000000" fill-opacity="0.0" clip-path="url(#id_0)" d="M80.55 222.9908C80.55 224.64766 79.206856 225.9908 77.55 225.9908C75.89314 225.9908 74.55 224.64766 74.55 222.9908C74.55 221.33394 75.89314 219.9908 77.55 219.9908C79.206856 219.9908 80.55 221.33394 80.55 222.9908Z" fill-rule="nonzero"/><path fill="#000000" fill-opacity="0.0" clip-path="url(#id_0)" d="M154.7 163.38641C154.7 165.04326 153.35686 166.38641 151.7 166.38641C150.04315 166.38641 148.7 165.04326 148.7 163.38641C148.7 161.72955 150.04315 160.38641 151.7 160.38641C153.35686 160.38641 154.7 161.72955 154.7 163.38641Z" fill-rule="nonzero"/><path fill="#000000" fill-opacity="0.0" clip-path="url(#id_0)" d="M525.45 82.95332C525.45 84.61018 524.1069 85.95332 522.45 85.95332C520.79315 85.95332 519.45 84.61018 519.45 82.95332C519.45 81.29647 520.79315 79.95332 522.45 79.95332C524.1069 79.95332 525.45 81.29647 525.45 82.95332Z" fill-rule="nonzero"/><path fill="#000000" fill-opacity="0.0" clip-path="url(#id_0)" d="M80.55 276.682C80.55 278.33887 79.206856 279.682 77.55 279.682C75.89314 279.682 74.55 278.33887 74.55 276.682C74.55 275.02515 75.89314 273.682 77.55 273.682C79.206856 273.682 80.55 275.02515 80.55 276.682Z" fill-rule="nonzero"/><path fill="#000000" fill-opacity="0.0" clip-path="url(#id_0)" d="M154.7 208.39804C154.7 210.0549 153.35686 211.39804 151.7 211.39804C150.04315 211.39804 148.7 210.0549 148.7 208.39804C148.7 206.74118 150.04315 205.39804 151.7 205.39804C153.35686 205.39804 154.7 206.74118 154.7 208.39804Z" fill-rule="nonzero"/><path fill="#000000" fill-opacity="0.0" clip-path="url(#id_0)" d="M525.45 99.74768C525.45 101.40453 524.1069 102.74768 522.45 102.74768C520.79315 102.74768 519.45 101.40453 519.45 99.74768C519.45 98.09083 520.79315 96.74768 522.45 96.74768C524.1069 96.74768 525.45 98.09083 525.45 99.74768Z" fill-rule="nonzero"/><path fill="#000000" fill-opacity="0.0" clip-path="url(#id_0)" d="M80.55 238.02158C80.55 239.67842 79.206856 241.02158 77.55 241.02158C75.89314 241.02158 74.55 239.67842 74.55 238.02158C74.55 236.36472 75.89314 235.02158 77.55 235.02158C79.206856 235.02158 80.55 236.36472 80.55 238.02158Z" fill-rule="nonzero"/><path fill="#000000" fill-opacity="0.0" clip-path="url(#id_0)" d="M154.7 221.01974C154.7 222.67659 153.35686 224.01974 151.7 224.01974C150.04315 224.01974 148.7 222.67659 148.7 221.01974C148.7 219.36288 150.04315 218.01974 151.7 218.01974C153.35686 218.01974 154.7 219.36288 154.7 221.01974Z" fill-rule="nonzero"/><path fill="#000000" fill-opacity="0.0" clip-path="url(#id_0)" d="M525.45 173.56445C525.45 175.22131 524.1069 176.56445 522.45 176.56445C520.79315 176.56445 519.45 175.22131 519.45 173.56445C519.45 171.9076 520.79315 170.56445 522.45 170.56445C524.1069 170.56445 525.45 171.9076 525.45 173.56445Z" fill-rule="nonzero"/><path fill="#000000" d="M271.42188 349.45L271.42188 340.85626L272.57812 340.85626L277.09375 347.60626L277.09375 340.85626L278.1875 340.85626L278.1875 349.45L277.01562 349.45L272.5 342.7L272.5 349.45L271.42188 349.45ZM281.6875 340.71564Q282.53125 340.71564 283.0625 341.3094Q283.60938 341.8875 283.60938 342.91876Q283.60938 343.9344 283.0625 344.52814Q282.53125 345.10626 281.6875 345.10626Q280.84375 345.10626 280.29688 344.54376Q279.76562 343.96564 279.76562 342.9344Q279.76562 341.8875 280.29688 341.3094Q280.84375 340.71564 281.6875 340.71564ZM281.6875 341.4969Q281.21875 341.4969 280.92188 341.825Q280.625 342.15314 280.625 342.91876Q280.625 343.65314 280.92188 343.9969Q281.21875 344.34064 281.6875 344.34064Q282.15625 344.34064 282.4375 343.9969Q282.73438 343.65314 282.73438 342.8875Q282.73438 342.16876 282.4375 341.84064Q282.15625 341.4969 281.6875 341.4969ZM291.35938 347.16876L292.39062 347.3094Q292.21875 348.3719 291.51562 348.98126Q290.8125 349.59064 289.79688 349.59064Q288.51562 349.59064 287.73438 348.7625Q286.96875 347.91876 286.96875 346.35626Q286.96875 345.35626 287.29688 344.60626Q287.64062 343.84064 288.3125 343.46564Q289.0 343.09064 289.8125 343.09064Q290.8125 343.09064 291.45312 343.60626Q292.10938 344.10626 292.29688 345.0594L291.26562 345.21564Q291.125 344.59064 290.75 344.27814Q290.375 343.95 289.84375 343.95Q289.04688 343.95 288.54688 344.52814Q288.04688 345.09064 288.04688 346.325Q288.04688 347.59064 288.53125 348.15314Q289.01562 348.71564 289.78125 348.71564Q290.40625 348.71564 290.8125 348.34064Q291.23438 347.96564 291.35938 347.16876ZM293.26562 349.45L293.26562 340.85626L294.32812 340.85626L294.32812 349.45L293.26562 349.45ZM296.29688 342.075L296.29688 340.85626L297.35938 340.85626L297.35938 342.075L296.29688 342.075ZM296.29688 349.45L296.29688 343.23126L297.35938 343.23126L297.35938 349.45L296.29688 349.45ZM303.54688 347.45L304.64062 347.575Q304.39062 348.52814 303.6875 349.0594Q302.98438 349.59064 301.90625 349.59064Q300.54688 349.59064 299.73438 348.7469Q298.9375 347.90314 298.9375 346.3875Q298.9375 344.825 299.75 343.96564Q300.5625 343.09064 301.84375 343.09064Q303.09375 343.09064 303.875 343.9344Q304.67188 344.77814 304.67188 346.325Q304.67188 346.41876 304.67188 346.60626L300.03125 346.60626Q300.09375 347.6375 300.60938 348.1844Q301.125 348.71564 301.90625 348.71564Q302.48438 348.71564 302.89062 348.41876Q303.3125 348.10626 303.54688 347.45ZM300.09375 345.7469L303.5625 345.7469Q303.5 344.95 303.17188 344.5594Q302.65625 343.95 301.85938 343.95Q301.125 343.95 300.625 344.4344Q300.14062 344.91876 300.09375 345.7469ZM306.29688 349.45L306.29688 343.23126L307.23438 343.23126L307.23438 344.10626Q307.92188 343.09064 309.21875 343.09064Q309.78125 343.09064 310.25 343.29376Q310.73438 343.4969 310.96875 343.825Q311.20312 344.15314 311.29688 344.59064Q311.34375 344.8875 311.34375 345.6219L311.34375 349.45L310.29688 349.45L310.29688 345.66876Q310.29688 345.0125 310.17188 344.7Q310.04688 344.3875 309.73438 344.2Q309.42188 343.9969 309.0 343.9969Q308.32812 343.9969 307.82812 344.4344Q307.34375 344.85626 307.34375 346.04376L307.34375 349.45L306.29688 349.45ZM315.59375 348.5125L315.75 349.4344Q315.29688 349.52814 314.95312 349.52814Q314.375 349.52814 314.0625 349.35626Q313.75 349.16876 313.60938 348.8719Q313.48438 348.575 313.48438 347.6219L313.48438 344.04376L312.71875 344.04376L312.71875 343.23126L313.48438 343.23126L313.48438 341.6844L314.53125 341.0594L314.53125 343.23126L315.59375 343.23126L315.59375 344.04376L314.53125 344.04376L314.53125 347.6844Q314.53125 348.1375 314.57812 348.2625Q314.64062 348.3875 314.76562 348.46564Q314.89062 348.54376 315.125 348.54376Q315.3125 348.54376 315.59375 348.5125ZM320.54688 347.45L321.64062 347.575Q321.39062 348.52814 320.6875 349.0594Q319.98438 349.59064 318.90625 349.59064Q317.54688 349.59064 316.73438 348.7469Q315.9375 347.90314 315.9375 346.3875Q315.9375 344.825 316.75 343.96564Q317.5625 343.09064 318.84375 343.09064Q320.09375 343.09064 320.875 343.9344Q321.67188 344.77814 321.67188 346.325Q321.67188 346.41876 321.67188 346.60626L317.03125 346.60626Q317.09375 347.6375 317.60938 348.1844Q318.125 348.71564 318.90625 348.71564Q319.48438 348.71564 319.89062 348.41876Q320.3125 348.10626 320.54688 347.45ZM317.09375 345.7469L320.5625 345.7469Q320.5 344.95 320.17188 344.5594Q319.65625 343.95 318.85938 343.95Q318.125 343.95 317.625 344.4344Q317.14062 344.91876 317.09375 345.7469ZM322.875 347.59064L323.90625 347.4344Q324.0 348.0594 324.39062 348.3875Q324.79688 348.71564 325.53125 348.71564Q326.25 348.71564 326.59375 348.4344Q326.95312 348.1375 326.95312 347.73126Q326.95312 347.3719 326.64062 347.16876Q326.42188 347.02814 325.5625 346.8094Q324.40625 346.5125 323.95312 346.3094Q323.51562 346.09064 323.28125 345.71564Q323.04688 345.34064 323.04688 344.8719Q323.04688 344.46564 323.23438 344.10626Q323.42188 343.7469 323.75 343.5125Q324.0 343.34064 324.42188 343.21564Q324.84375 343.09064 325.34375 343.09064Q326.0625 343.09064 326.60938 343.3094Q327.17188 343.5125 327.4375 343.8719Q327.70312 344.23126 327.79688 344.825L326.76562 344.96564Q326.70312 344.4969 326.35938 344.23126Q326.03125 343.95 325.40625 343.95Q324.6875 343.95 324.375 344.2Q324.0625 344.4344 324.0625 344.7625Q324.0625 344.96564 324.1875 345.1219Q324.32812 345.29376 324.59375 345.40314Q324.75 345.46564 325.53125 345.66876Q326.65625 345.98126 327.09375 346.16876Q327.53125 346.35626 327.78125 346.71564Q328.03125 347.075 328.03125 347.6219Q328.03125 348.15314 327.71875 348.6219Q327.42188 349.075 326.84375 349.34064Q326.26562 349.59064 325.53125 349.59064Q324.3125 349.59064 323.67188 349.09064Q323.04688 348.575 322.875 347.59064Z" fill-rule="nonzero"/><path fill="#000000" d="M20.956263 222.12083L20.956263 220.98021L25.925013 220.98021Q27.221888 220.98021 27.987513 221.27708Q28.737513 221.57396 29.221888 222.33958Q29.690638 223.10521 29.690638 224.33958Q29.690638 225.54271 29.284388 226.32396Q28.862513 227.08958 28.081263 227.41771Q27.284388 227.74583 25.925013 227.74583L20.956263 227.74583L20.956263 226.60521L25.909388 226.60521Q27.034388 226.60521 27.565638 226.40208Q28.096888 226.18333 28.393763 225.68333Q28.675013 225.16771 28.675013 224.43333Q28.675013 223.18333 28.112513 222.65208Q27.534388 222.12083 25.909388 222.12083L20.956263 222.12083ZM27.690638 219.30833L27.534388 218.27708Q28.159388 218.18333 28.487513 217.79271Q28.815638 217.38646 28.815638 216.65208Q28.815638 215.93333 28.534388 215.58958Q28.237513 215.23021 27.831263 215.23021Q27.471888 215.23021 27.268763 215.54271Q27.128138 215.76146 26.909388 216.62083Q26.612513 217.77708 26.409388 218.23021Q26.190638 218.66771 25.815638 218.90208Q25.440638 219.13646 24.971888 219.13646Q24.565638 219.13646 24.206263 218.94896Q23.846888 218.76146 23.612513 218.43333Q23.440638 218.18333 23.315638 217.76146Q23.190638 217.33958 23.190638 216.83958Q23.190638 216.12083 23.409388 215.57396Q23.612513 215.01146 23.971888 214.74583Q24.331263 214.48021 24.925013 214.38646L25.065638 215.41771Q24.596888 215.48021 24.331263 215.82396Q24.050013 216.15208 24.050013 216.77708Q24.050013 217.49583 24.300013 217.80833Q24.534388 218.12083 24.862513 218.12083Q25.065638 218.12083 25.221888 217.99583Q25.393763 217.85521 25.503138 217.58958Q25.565638 217.43333 25.768763 216.65208Q26.081263 215.52708 26.268763 215.08958Q26.456263 214.65208 26.815638 214.40208Q27.175013 214.15208 27.721888 214.15208Q28.253138 214.15208 28.721888 214.46458Q29.175013 214.76146 29.440638 215.33958Q29.690638 215.91771 29.690638 216.65208Q29.690638 217.87083 29.190638 218.51146Q28.675013 219.13646 27.690638 219.30833ZM26.440638 212.27708Q24.706263 212.27708 23.878138 211.32396Q23.190638 210.52708 23.190638 209.37083Q23.190638 208.08958 24.034388 207.27708Q24.862513 206.44896 26.346888 206.44896Q27.550013 206.44896 28.237513 206.80833Q28.925013 207.16771 29.315638 207.87083Q29.690638 208.55833 29.690638 209.37083Q29.690638 210.66771 28.862513 211.48021Q28.018763 212.27708 26.440638 212.27708ZM26.440638 211.19896Q27.628138 211.19896 28.221888 210.68333Q28.815638 210.15208 28.815638 209.37083Q28.815638 208.57396 28.221888 208.05833Q27.628138 207.54271 26.409388 207.54271Q25.253138 207.54271 24.659388 208.07396Q24.065638 208.58958 24.065638 209.37083Q24.065638 210.15208 24.659388 210.68333Q25.237513 211.19896 26.440638 211.19896ZM26.534388 195.62083L26.831263 194.49583Q28.221888 194.85521 28.956263 195.77708Q29.690638 196.69896 29.690638 198.04271Q29.690638 199.43333 29.128138 200.30833Q28.565638 201.18333 27.503138 201.63646Q26.425013 202.08958 25.190638 202.08958Q23.846888 202.08958 22.846888 201.57396Q21.846888 201.05833 21.331263 200.12083Q20.815638 199.16771 20.815638 198.02708Q20.815638 196.74583 21.471888 195.87083Q22.128138 194.98021 23.315638 194.63646L23.581263 195.76146Q22.643763 196.05833 22.221888 196.63646Q21.784388 197.19896 21.784388 198.05833Q21.784388 199.04271 22.268763 199.71458Q22.737513 200.37083 23.534388 200.65208Q24.331263 200.91771 25.190638 200.91771Q26.284388 200.91771 27.096888 200.60521Q27.909388 200.27708 28.315638 199.60521Q28.721888 198.93333 28.721888 198.13646Q28.721888 197.18333 28.175013 196.52708Q27.628138 195.85521 26.534388 195.62083ZM29.550013 192.76146L20.956263 192.76146L20.956263 189.51146Q20.956263 188.66771 21.034388 188.21458Q21.143763 187.57396 21.440638 187.15208Q21.737513 186.71458 22.268763 186.46458Q22.800013 186.19896 23.440638 186.19896Q24.534388 186.19896 25.300013 186.90208Q26.050013 187.58958 26.050013 189.41771L26.050013 191.62083L29.550013 191.62083L29.550013 192.76146ZM25.050013 191.62083L25.050013 189.40208Q25.050013 188.29271 24.643763 187.83958Q24.221888 187.37083 23.471888 187.37083Q22.940638 187.37083 22.565638 187.65208Q22.175013 187.91771 22.050013 188.35521Q21.971888 188.65208 21.971888 189.41771L21.971888 191.62083L25.050013 191.62083ZM20.956263 179.12083L20.956263 177.98021L25.925013 177.98021Q27.221888 177.98021 27.987513 178.27708Q28.737513 178.57396 29.221888 179.33958Q29.690638 180.10521 29.690638 181.33958Q29.690638 182.54271 29.284388 183.32396Q28.862513 184.08958 28.081263 184.41771Q27.284388 184.74583 25.925013 184.74583L20.956263 184.74583L20.956263 183.60521L25.909388 183.60521Q27.034388 183.60521 27.565638 183.40208Q28.096888 183.18333 28.393763 182.68333Q28.675013 182.16771 28.675013 181.43333Q28.675013 180.18333 28.112513 179.65208Q27.534388 179.12083 25.909388 179.12083L20.956263 179.12083ZM32.08126 170.87083Q30.971888 171.74583 29.503138 172.35521Q28.018763 172.94896 26.440638 172.94896Q25.050013 172.94896 23.768763 172.51146Q22.284388 171.98021 20.815638 170.87083L20.815638 170.12083Q22.034388 170.82396 22.550013 171.05833Q23.362513 171.41771 24.237513 171.62083Q25.331263 171.87083 26.440638 171.87083Q29.268763 171.87083 32.08126 170.12083L32.08126 170.87083ZM23.018763 168.98021Q22.096888 168.98021 21.456263 168.52708Q20.815638 168.05833 20.815638 167.18333Q20.815638 166.37083 21.393763 165.83958Q21.971888 165.30833 23.081263 165.30833Q24.175013 165.30833 24.768763 165.85521Q25.346888 166.38646 25.346888 167.16771Q25.346888 167.94896 24.768763 168.46458Q24.190638 168.98021 23.018763 168.98021ZM21.534388 167.15208Q21.534388 167.54271 21.878138 167.80833Q22.221888 168.05833 23.128138 168.05833Q23.956263 168.05833 24.300013 167.80833Q24.628138 167.54271 24.628138 167.15208Q24.628138 166.74583 24.284388 166.49583Q23.940638 166.23021 23.050013 166.23021Q22.206263 166.23021 21.878138 166.49583Q21.534388 166.76146 21.534388 167.15208ZM29.862513 167.15208L20.815638 162.44896L20.815638 161.58958L29.862513 166.27708L29.862513 167.15208ZM27.534388 163.43333Q26.612513 163.43333 25.971888 162.98021Q25.331263 162.51146 25.331263 161.62083Q25.331263 160.80833 25.909388 160.27708Q26.471888 159.74583 27.596888 159.74583Q28.690638 159.74583 29.284388 160.29271Q29.862513 160.82396 29.862513 161.62083Q29.862513 162.38646 29.284388 162.91771Q28.706263 163.43333 27.534388 163.43333ZM26.050013 161.58958Q26.050013 161.99583 26.393763 162.26146Q26.737513 162.51146 27.643763 162.51146Q28.456263 162.51146 28.800013 162.24583Q29.143763 161.98021 29.143763 161.58958Q29.143763 161.19896 28.800013 160.93333Q28.456263 160.66771 27.550013 160.66771Q26.721888 160.66771 26.393763 160.93333Q26.050013 161.19896 26.050013 161.58958ZM32.08126 157.19896L32.08126 157.94896Q29.268763 156.19896 26.440638 156.19896Q25.346888 156.19896 24.253138 156.44896Q23.378138 156.65208 22.565638 157.01146Q22.050013 157.24583 20.815638 157.94896L20.815638 157.19896Q22.284388 156.10521 23.768763 155.57396Q25.050013 155.12083 26.440638 155.12083Q28.018763 155.12083 29.503138 155.73021Q30.971888 156.33958 32.08126 157.19896Z" fill-rule="nonzero"/><path fill="#000000" d="M569.85626 224.62082L569.85626 223.4802L574.825 223.4802Q576.1219 223.4802 576.8875 223.77707Q577.6375 224.07394 578.1219 224.83957Q578.59064 225.6052 578.59064 226.83957Q578.59064 228.0427 578.1844 228.82394Q577.7625 229.58957 576.98126 229.9177Q576.1844 230.24582 574.825 230.24582L569.85626 230.24582L569.85626 229.1052L574.8094 229.1052Q575.9344 229.1052 576.46564 228.90207Q576.9969 228.68332 577.29376 228.18332Q577.575 227.6677 577.575 226.93332Q577.575 225.68332 577.0125 225.15207Q576.4344 224.62082 574.8094 224.62082L569.85626 224.62082ZM576.59064 221.80832L576.4344 220.77707Q577.0594 220.68332 577.3875 220.2927Q577.71564 219.88644 577.71564 219.15207Q577.71564 218.43332 577.4344 218.08957Q577.1375 217.7302 576.73126 217.7302Q576.3719 217.7302 576.16876 218.0427Q576.02814 218.26144 575.8094 219.12082Q575.5125 220.27707 575.3094 220.7302Q575.09064 221.1677 574.71564 221.40207Q574.34064 221.63644 573.8719 221.63644Q573.46564 221.63644 573.10626 221.44894Q572.7469 221.26144 572.5125 220.93332Q572.34064 220.68332 572.21564 220.26144Q572.09064 219.83957 572.09064 219.33957Q572.09064 218.62082 572.3094 218.07394Q572.5125 217.51144 572.8719 217.24582Q573.23126 216.9802 573.825 216.88644L573.96564 217.9177Q573.4969 217.9802 573.23126 218.32394Q572.95 218.65207 572.95 219.27707Q572.95 219.99582 573.2 220.30832Q573.4344 220.62082 573.7625 220.62082Q573.96564 220.62082 574.1219 220.49582Q574.29376 220.3552 574.40314 220.08957Q574.46564 219.93332 574.66876 219.15207Q574.98126 218.02707 575.16876 217.58957Q575.35626 217.15207 575.71564 216.90207Q576.075 216.65207 576.6219 216.65207Q577.15314 216.65207 577.6219 216.96457Q578.075 217.26144 578.34064 217.83957Q578.59064 218.4177 578.59064 219.15207Q578.59064 220.37082 578.09064 221.01144Q577.575 221.63644 576.59064 221.80832ZM575.34064 214.77707Q573.60626 214.77707 572.77814 213.82394Q572.09064 213.02707 572.09064 211.87082Q572.09064 210.58957 572.9344 209.77707Q573.7625 208.94894 575.2469 208.94894Q576.45 208.94894 577.1375 209.30832Q577.825 209.6677 578.21564 210.37082Q578.59064 211.05832 578.59064 211.87082Q578.59064 213.1677 577.7625 213.9802Q576.91876 214.77707 575.34064 214.77707ZM575.34064 213.69894Q576.52814 213.69894 577.1219 213.18332Q577.71564 212.65207 577.71564 211.87082Q577.71564 211.07394 577.1219 210.55832Q576.52814 210.0427 575.3094 210.0427Q574.15314 210.0427 573.5594 210.57394Q572.96564 211.08957 572.96564 211.87082Q572.96564 212.65207 573.5594 213.18332Q574.1375 213.69894 575.34064 213.69894ZM578.45 204.24582L569.85626 204.24582L569.85626 200.43332Q569.85626 199.27707 570.09064 198.68332Q570.325 198.08957 570.91876 197.7302Q571.4969 197.37082 572.2 197.37082Q573.1219 197.37082 573.7469 197.96457Q574.3719 198.55832 574.54376 199.7927Q574.7625 199.33957 574.96564 199.1052Q575.41876 198.6052 576.10626 198.1677L578.45 196.6677L578.45 198.1052L576.66876 199.2302Q575.8875 199.7302 575.48126 200.05832Q575.075 200.37082 574.91876 200.63644Q574.7469 200.88644 574.66876 201.15207Q574.6375 201.33957 574.6375 201.77707L574.6375 203.1052L578.45 203.1052L578.45 204.24582ZM573.65314 203.1052L573.65314 200.65207Q573.65314 199.88644 573.4969 199.44894Q573.325 198.99582 572.98126 198.77707Q572.6219 198.5427 572.2 198.5427Q571.59064 198.5427 571.2 198.99582Q570.8094 199.43332 570.8094 200.38644L570.8094 203.1052L573.65314 203.1052ZM578.45 196.19894L569.85626 192.90207L569.85626 191.68332L578.45 188.1677L578.45 189.44894L575.84064 190.46457L575.84064 194.0427L578.45 194.99582L578.45 196.19894ZM574.91876 193.71457L574.91876 190.80832L572.54376 191.69894Q571.46564 192.12082 570.7625 192.30832Q571.59064 192.4802 572.40314 192.77707L574.91876 193.71457ZM578.45 188.2927L569.85626 188.2927L569.85626 186.57394L575.9344 184.5427Q576.79376 184.26144 577.21564 184.13644Q576.7469 183.99582 575.84064 183.68332L569.85626 181.62082L569.85626 180.08957L578.45 180.08957L578.45 181.18332L571.2625 181.18332L578.45 183.68332L578.45 184.71457L571.1375 187.19894L578.45 187.19894L578.45 188.2927ZM580.98126 174.37082Q579.8719 175.24582 578.40314 175.8552Q576.91876 176.44894 575.34064 176.44894Q573.95 176.44894 572.66876 176.01144Q571.1844 175.4802 569.71564 174.37082L569.71564 173.62082Q570.9344 174.32394 571.45 174.55832Q572.2625 174.9177 573.1375 175.12082Q574.23126 175.37082 575.34064 175.37082Q578.16876 175.37082 580.98126 173.62082L580.98126 174.37082ZM578.45 172.2927L569.85626 172.2927L569.85626 170.57394L575.9344 168.5427Q576.79376 168.26144 577.21564 168.13644Q576.7469 167.99582 575.84064 167.68332L569.85626 165.62082L569.85626 164.08957L578.45 164.08957L578.45 165.18332L571.2625 165.18332L578.45 167.68332L578.45 168.71457L571.1375 171.19894L578.45 171.19894L578.45 172.2927ZM578.45 163.30832L569.85626 163.30832L569.85626 160.07394Q569.85626 159.08957 570.1219 158.49582Q570.3875 157.90207 570.9344 157.57394Q571.46564 157.2302 572.0594 157.2302Q572.60626 157.2302 573.09064 157.52707Q573.575 157.82394 573.8719 158.43332Q574.10626 157.65207 574.66876 157.24582Q575.21564 156.82394 575.96564 156.82394Q576.5594 156.82394 577.09064 157.07394Q577.60626 157.32394 577.8875 157.69894Q578.16876 158.07394 578.3094 158.65207Q578.45 159.21457 578.45 160.02707L578.45 163.30832ZM573.46564 162.1677L573.46564 160.30832Q573.46564 159.55832 573.3719 159.2302Q573.2469 158.7927 572.95 158.57394Q572.6375 158.3552 572.1844 158.3552Q571.7625 158.3552 571.4344 158.55832Q571.10626 158.76144 570.9969 159.15207Q570.8719 159.52707 570.8719 160.44894L570.8719 162.1677L573.46564 162.1677ZM577.4344 162.1677L577.4344 160.02707Q577.4344 159.4802 577.3875 159.26144Q577.325 158.8552 577.16876 158.6052Q576.9969 158.33957 576.6844 158.1677Q576.3719 157.99582 575.96564 157.99582Q575.48126 157.99582 575.1219 158.24582Q574.7625 158.4802 574.6219 158.9177Q574.48126 159.3552 574.48126 160.18332L574.48126 162.1677L577.4344 162.1677ZM580.98126 154.69894L580.98126 155.44894Q578.16876 153.69894 575.34064 153.69894Q574.2469 153.69894 573.15314 153.94894Q572.27814 154.15207 571.46564 154.51144Q570.95 154.74582 569.71564 155.44894L569.71564 154.69894Q571.1844 153.6052 572.66876 153.07394Q573.95 152.62082 575.34064 152.62082Q576.91876 152.62082 578.40314 153.2302Q579.8719 153.83957 580.98126 154.69894Z" fill-rule="nonzero"/><path fill="#000000" d="M65.05 300.21564Q65.05 298.6844 65.3625 297.7625Q65.675 296.825 66.28438 296.325Q66.90938 295.825 67.84688 295.825Q68.53438 295.825 69.05 296.10626Q69.58125 296.3875 69.925 296.91876Q70.26875 297.4344 70.45625 298.1844Q70.64375 298.9344 70.64375 300.21564Q70.64375 301.73126 70.33125 302.65314Q70.03438 303.575 69.40938 304.09064Q68.8 304.59064 67.84688 304.59064Q66.6125 304.59064 65.89375 303.7Q65.05 302.6375 65.05 300.21564ZM66.12813 300.21564Q66.12813 302.325 66.62813 303.02814Q67.12813 303.73126 67.84688 303.73126Q68.58125 303.73126 69.06563 303.02814Q69.56563 302.325 69.56563 300.21564Q69.56563 298.09064 69.06563 297.40314Q68.58125 296.7 67.83125 296.7Q67.1125 296.7 66.675 297.3094Q66.12813 298.09064 66.12813 300.21564Z" fill-rule="nonzero"/><path fill="#000000" d="M63.596874 245.80104L63.596874 246.81667L57.909374 246.81667Q57.909374 246.44167 58.034374 246.08229Q58.253124 245.50417 58.721874 244.94167Q59.20625 244.37917 60.1125 243.64479Q61.51875 242.48854 62.003124 241.81667Q62.503124 241.14479 62.503124 240.55104Q62.503124 239.92604 62.05 239.50417Q61.596874 239.06667 60.878124 239.06667Q60.1125 239.06667 59.659374 239.51979Q59.20625 239.97292 59.190624 240.78542L58.1125 240.67604Q58.221874 239.45729 58.940624 238.83229Q59.675 238.19167 60.909374 238.19167Q62.14375 238.19167 62.8625 238.87917Q63.58125 239.56667 63.58125 240.58229Q63.58125 241.09792 63.3625 241.59792Q63.159374 242.08229 62.659374 242.64479Q62.175 243.19167 61.05 244.14479Q60.096874 244.94167 59.815624 245.23854Q59.55 245.51979 59.378124 245.80104L63.596874 245.80104ZM65.05 244.56667L66.15938 244.47292Q66.28438 245.28542 66.72188 245.69167Q67.175 246.09792 67.81563 246.09792Q68.56563 246.09792 69.09688 245.51979Q69.62813 244.94167 69.62813 244.00417Q69.62813 243.09792 69.1125 242.58229Q68.6125 242.05104 67.78438 242.05104Q67.28438 242.05104 66.8625 242.28542Q66.45625 242.51979 66.22188 242.87917L65.2375 242.75417L66.06563 238.34792L70.34688 238.34792L70.34688 239.34792L66.90938 239.34792L66.45625 241.66042Q67.22188 241.11354 68.06563 241.11354Q69.19063 241.11354 69.95625 241.89479Q70.7375 242.67604 70.7375 243.91042Q70.7375 245.06667 70.06563 245.92604Q69.2375 246.95729 67.81563 246.95729Q66.64375 246.95729 65.89375 246.30104Q65.15938 245.64479 65.05 244.56667Z" fill-rule="nonzero"/><path fill="#000000" d="M58.05 186.93333L59.159374 186.83958Q59.284374 187.65208 59.721874 188.05833Q60.175 188.46458 60.815624 188.46458Q61.565624 188.46458 62.096874 187.88646Q62.628124 187.30833 62.628124 186.37083Q62.628124 185.46458 62.1125 184.94896Q61.6125 184.41771 60.784374 184.41771Q60.284374 184.41771 59.8625 184.65208Q59.45625 184.88646 59.221874 185.24583L58.2375 185.12083L59.065624 180.71458L63.346874 180.71458L63.346874 181.71458L59.909374 181.71458L59.45625 184.02708Q60.221874 183.48021 61.065624 183.48021Q62.190624 183.48021 62.95625 184.26146Q63.7375 185.04271 63.7375 186.27708Q63.7375 187.43333 63.065624 188.29271Q62.2375 189.32396 60.815624 189.32396Q59.64375 189.32396 58.89375 188.66771Q58.159374 188.01146 58.05 186.93333ZM65.05 184.94896Q65.05 183.41771 65.3625 182.49583Q65.675 181.55833 66.28438 181.05833Q66.90938 180.55833 67.84688 180.55833Q68.53438 180.55833 69.05 180.83958Q69.58125 181.12083 69.925 181.65208Q70.26875 182.16771 70.45625 182.91771Q70.64375 183.66771 70.64375 184.94896Q70.64375 186.46458 70.33125 187.38646Q70.03438 188.30833 69.40938 188.82396Q68.8 189.32396 67.84688 189.32396Q66.6125 189.32396 65.89375 188.43333Q65.05 187.37083 65.05 184.94896ZM66.12813 184.94896Q66.12813 187.05833 66.62813 187.76146Q67.12813 188.46458 67.84688 188.46458Q68.58125 188.46458 69.06563 187.76146Q69.56563 187.05833 69.56563 184.94896Q69.56563 182.82396 69.06563 182.13646Q68.58125 181.43333 67.83125 181.43333Q67.1125 181.43333 66.675 182.04271Q66.12813 182.82396 66.12813 184.94896Z" fill-rule="nonzero"/><path fill="#000000" d="M58.1125 124.08125L58.1125 123.06563L63.675 123.06563L63.675 123.89375Q62.8625 124.76875 62.05 126.22188Q61.253124 127.65938 60.815624 129.19063Q60.4875 130.26875 60.409374 131.55L59.315624 131.55Q59.33125 130.53438 59.70625 129.09688Q60.096874 127.65938 60.8 126.33125Q61.51875 125.00313 62.33125 124.08125L58.1125 124.08125ZM65.05 129.3L66.15938 129.20625Q66.28438 130.01875 66.72188 130.425Q67.175 130.83125 67.81563 130.83125Q68.56563 130.83125 69.09688 130.25313Q69.62813 129.675 69.62813 128.7375Q69.62813 127.83125 69.1125 127.31563Q68.6125 126.78438 67.78438 126.78438Q67.28438 126.78438 66.8625 127.01875Q66.45625 127.25313 66.22188 127.6125L65.2375 127.4875L66.06563 123.08125L70.34688 123.08125L70.34688 124.08125L66.90938 124.08125L66.45625 126.39375Q67.22188 125.84688 68.06563 125.84688Q69.19063 125.84688 69.95625 126.62813Q70.7375 127.40938 70.7375 128.64375Q70.7375 129.8 70.06563 130.65938Q69.2375 131.69063 67.81563 131.69063Q66.64375 131.69063 65.89375 131.03438Q65.15938 130.37813 65.05 129.3Z" fill-rule="nonzero"/><path fill="#000000" d="M55.01875 73.916664L53.971874 73.916664L53.971874 67.197914Q53.58125 67.55729 52.95625 67.93229Q52.346874 68.291664 51.8625 68.46354L51.8625 67.447914Q52.7375 67.02604 53.39375 66.447914Q54.065624 65.854164 54.346874 65.291664L55.01875 65.291664L55.01875 73.916664ZM58.05 69.68229Q58.05 68.15104 58.3625 67.229164Q58.675 66.291664 59.284374 65.791664Q59.909374 65.291664 60.846874 65.291664Q61.534374 65.291664 62.05 65.572914Q62.58125 65.854164 62.925 66.385414Q63.26875 66.90104 63.45625 67.65104Q63.64375 68.40104 63.64375 69.68229Q63.64375 71.197914 63.33125 72.11979Q63.034374 73.041664 62.409374 73.55729Q61.8 74.05729 60.846874 74.05729Q59.6125 74.05729 58.89375 73.166664Q58.05 72.104164 58.05 69.68229ZM59.128124 69.68229Q59.128124 71.791664 59.628124 72.49479Q60.128124 73.197914 60.846874 73.197914Q61.58125 73.197914 62.065624 72.49479Q62.565624 71.791664 62.565624 69.68229Q62.565624 67.55729 62.065624 66.86979Q61.58125 66.166664 60.83125 66.166664Q60.1125 66.166664 59.675 66.77604Q59.128124 67.55729 59.128124 69.68229ZM65.05 69.68229Q65.05 68.15104 65.3625 67.229164Q65.675 66.291664 66.28438 65.791664Q66.90938 65.291664 67.84688 65.291664Q68.53438 65.291664 69.05 65.572914Q69.58125 65.854164 69.925 66.385414Q70.26875 66.90104 70.45625 67.65104Q70.64375 68.40104 70.64375 69.68229Q70.64375 71.197914 70.33125 72.11979Q70.03438 73.041664 69.40938 73.55729Q68.8 74.05729 67.84688 74.05729Q66.6125 74.05729 65.89375 73.166664Q65.05 72.104164 65.05 69.68229ZM66.12813 69.68229Q66.12813 71.791664 66.62813 72.49479Q67.12813 73.197914 67.84688 73.197914Q68.58125 73.197914 69.06563 72.49479Q69.56563 71.791664 69.56563 69.68229Q69.56563 67.55729 69.06563 66.86979Q68.58125 66.166664 67.83125 66.166664Q67.1125 66.166664 66.675 66.77604Q66.12813 67.55729 66.12813 69.68229Z" fill-rule="nonzero"/><path fill="#000000" d="M528.95 300.21564Q528.95 298.6844 529.2625 297.7625Q529.575 296.825 530.1844 296.325Q530.8094 295.825 531.7469 295.825Q532.4344 295.825 532.95 296.10626Q533.48126 296.3875 533.825 296.91876Q534.16876 297.4344 534.35626 298.1844Q534.54376 298.9344 534.54376 300.21564Q534.54376 301.73126 534.23126 302.65314Q533.9344 303.575 533.3094 304.09064Q532.7 304.59064 531.7469 304.59064Q530.5125 304.59064 529.79376 303.7Q528.95 302.6375 528.95 300.21564ZM530.02814 300.21564Q530.02814 302.325 530.52814 303.02814Q531.02814 303.73126 531.7469 303.73126Q532.48126 303.73126 532.96564 303.02814Q533.46564 302.325 533.46564 300.21564Q533.46564 298.09064 532.96564 297.40314Q532.48126 296.7 531.73126 296.7Q531.0125 296.7 530.575 297.3094Q530.02814 298.09064 530.02814 300.21564Z" fill-rule="nonzero"/><path fill="#000000" d="M528.95 244.56667L530.0594 244.47292Q530.1844 245.28542 530.6219 245.69167Q531.075 246.09792 531.71564 246.09792Q532.46564 246.09792 532.9969 245.51979Q533.52814 244.94167 533.52814 244.00417Q533.52814 243.09792 533.0125 242.58229Q532.5125 242.05104 531.6844 242.05104Q531.1844 242.05104 530.7625 242.28542Q530.35626 242.51979 530.1219 242.87917L529.1375 242.75417L529.96564 238.34792L534.2469 238.34792L534.2469 239.34792L530.8094 239.34792L530.35626 241.66042Q531.1219 241.11354 531.96564 241.11354Q533.09064 241.11354 533.85626 241.89479Q534.6375 242.67604 534.6375 243.91042Q534.6375 245.06667 533.96564 245.92604Q533.1375 246.95729 531.71564 246.95729Q530.54376 246.95729 529.79376 246.30104Q529.0594 245.64479 528.95 244.56667ZM535.95 242.58229Q535.95 241.05104 536.2625 240.12917Q536.575 239.19167 537.1844 238.69167Q537.8094 238.19167 538.7469 238.19167Q539.4344 238.19167 539.95 238.47292Q540.48126 238.75417 540.825 239.28542Q541.16876 239.80104 541.35626 240.55104Q541.54376 241.30104 541.54376 242.58229Q541.54376 244.09792 541.23126 245.01979Q540.9344 245.94167 540.3094 246.45729Q539.7 246.95729 538.7469 246.95729Q537.5125 246.95729 536.79376 246.06667Q535.95 245.00417 535.95 242.58229ZM537.02814 242.58229Q537.02814 244.69167 537.52814 245.39479Q538.02814 246.09792 538.7469 246.09792Q539.48126 246.09792 539.96564 245.39479Q540.46564 244.69167 540.46564 242.58229Q540.46564 240.45729 539.96564 239.76979Q539.48126 239.06667 538.73126 239.06667Q538.0125 239.06667 537.575 239.67604Q537.02814 240.45729 537.02814 242.58229Z" fill-rule="nonzero"/><path fill="#000000" d="M532.91876 189.18333L531.8719 189.18333L531.8719 182.46458Q531.48126 182.82396 530.85626 183.19896Q530.2469 183.55833 529.7625 183.73021L529.7625 182.71458Q530.6375 182.29271 531.29376 181.71458Q531.96564 181.12083 532.2469 180.55833L532.91876 180.55833L532.91876 189.18333ZM535.95 184.94896Q535.95 183.41771 536.2625 182.49583Q536.575 181.55833 537.1844 181.05833Q537.8094 180.55833 538.7469 180.55833Q539.4344 180.55833 539.95 180.83958Q540.48126 181.12083 540.825 181.65208Q541.16876 182.16771 541.35626 182.91771Q541.54376 183.66771 541.54376 184.94896Q541.54376 186.46458 541.23126 187.38646Q540.9344 188.30833 540.3094 188.82396Q539.7 189.32396 538.7469 189.32396Q537.5125 189.32396 536.79376 188.43333Q535.95 187.37083 535.95 184.94896ZM537.02814 184.94896Q537.02814 187.05833 537.52814 187.76146Q538.02814 188.46458 538.7469 188.46458Q539.48126 188.46458 539.96564 187.76146Q540.46564 187.05833 540.46564 184.94896Q540.46564 182.82396 539.96564 182.13646Q539.48126 181.43333 538.73126 181.43333Q538.0125 181.43333 537.575 182.04271Q537.02814 182.82396 537.02814 184.94896ZM542.95 184.94896Q542.95 183.41771 543.2625 182.49583Q543.575 181.55833 544.1844 181.05833Q544.8094 180.55833 545.7469 180.55833Q546.4344 180.55833 546.95 180.83958Q547.48126 181.12083 547.825 181.65208Q548.16876 182.16771 548.35626 182.91771Q548.54376 183.66771 548.54376 184.94896Q548.54376 186.46458 548.23126 187.38646Q547.9344 188.30833 547.3094 188.82396Q546.7 189.32396 545.7469 189.32396Q544.5125 189.32396 543.79376 188.43333Q542.95 187.37083 542.95 184.94896ZM544.02814 184.94896Q544.02814 187.05833 544.52814 187.76146Q545.02814 188.46458 545.7469 188.46458Q546.48126 188.46458 546.96564 187.76146Q547.46564 187.05833 547.46564 184.94896Q547.46564 182.82396 546.96564 182.13646Q546.48126 181.43333 545.73126 181.43333Q545.0125 181.43333 544.575 182.04271Q544.02814 182.82396 544.02814 184.94896Z" fill-rule="nonzero"/><path fill="#000000" d="M532.91876 131.55L531.8719 131.55L531.8719 124.83125Q531.48126 125.19063 530.85626 125.56563Q530.2469 125.925 529.7625 126.09688L529.7625 125.08125Q530.6375 124.65938 531.29376 124.08125Q531.96564 123.4875 532.2469 122.925L532.91876 122.925L532.91876 131.55ZM535.95 129.3L537.0594 129.20625Q537.1844 130.01875 537.6219 130.425Q538.075 130.83125 538.71564 130.83125Q539.46564 130.83125 539.9969 130.25313Q540.52814 129.675 540.52814 128.7375Q540.52814 127.83125 540.0125 127.31563Q539.5125 126.78438 538.6844 126.78438Q538.1844 126.78438 537.7625 127.01875Q537.35626 127.25313 537.1219 127.6125L536.1375 127.4875L536.96564 123.08125L541.2469 123.08125L541.2469 124.08125L537.8094 124.08125L537.35626 126.39375Q538.1219 125.84688 538.96564 125.84688Q540.09064 125.84688 540.85626 126.62813Q541.6375 127.40938 541.6375 128.64375Q541.6375 129.8 540.96564 130.65938Q540.1375 131.69063 538.71564 131.69063Q537.54376 131.69063 536.79376 131.03438Q536.0594 130.37813 535.95 129.3ZM542.95 127.31563Q542.95 125.78438 543.2625 124.8625Q543.575 123.925 544.1844 123.425Q544.8094 122.925 545.7469 122.925Q546.4344 122.925 546.95 123.20625Q547.48126 123.4875 547.825 124.01875Q548.16876 124.53438 548.35626 125.28438Q548.54376 126.03438 548.54376 127.31563Q548.54376 128.83125 548.23126 129.75313Q547.9344 130.675 547.3094 131.19063Q546.7 131.69063 545.7469 131.69063Q544.5125 131.69063 543.79376 130.8Q542.95 129.7375 542.95 127.31563ZM544.02814 127.31563Q544.02814 129.425 544.52814 130.12813Q545.02814 130.83125 545.7469 130.83125Q546.48126 130.83125 546.96564 130.12813Q547.46564 129.425 547.46564 127.31563Q547.46564 125.19063 546.96564 124.50313Q546.48126 123.8 545.73126 123.8Q545.0125 123.8 544.575 124.40938Q544.02814 125.19063 544.02814 127.31563Z" fill-rule="nonzero"/><path fill="#000000" d="M534.4969 72.90104L534.4969 73.916664L528.8094 73.916664Q528.8094 73.541664 528.9344 73.18229Q529.15314 72.604164 529.6219 72.041664Q530.10626 71.479164 531.0125 70.74479Q532.41876 69.58854 532.90314 68.916664Q533.40314 68.24479 533.40314 67.65104Q533.40314 67.02604 532.95 66.604164Q532.4969 66.166664 531.77814 66.166664Q531.0125 66.166664 530.5594 66.61979Q530.10626 67.072914 530.09064 67.885414L529.0125 67.77604Q529.1219 66.55729 529.84064 65.93229Q530.575 65.291664 531.8094 65.291664Q533.04376 65.291664 533.7625 65.979164Q534.48126 66.666664 534.48126 67.68229Q534.48126 68.197914 534.2625 68.697914Q534.0594 69.18229 533.5594 69.74479Q533.075 70.291664 531.95 71.24479Q530.9969 72.041664 530.71564 72.33854Q530.45 72.61979 530.27814 72.90104L534.4969 72.90104ZM535.95 69.68229Q535.95 68.15104 536.2625 67.229164Q536.575 66.291664 537.1844 65.791664Q537.8094 65.291664 538.7469 65.291664Q539.4344 65.291664 539.95 65.572914Q540.48126 65.854164 540.825 66.385414Q541.16876 66.90104 541.35626 67.65104Q541.54376 68.40104 541.54376 69.68229Q541.54376 71.197914 541.23126 72.11979Q540.9344 73.041664 540.3094 73.55729Q539.7 74.05729 538.7469 74.05729Q537.5125 74.05729 536.79376 73.166664Q535.95 72.104164 535.95 69.68229ZM537.02814 69.68229Q537.02814 71.791664 537.52814 72.49479Q538.02814 73.197914 538.7469 73.197914Q539.48126 73.197914 539.96564 72.49479Q540.46564 71.791664 540.46564 69.68229Q540.46564 67.55729 539.96564 66.86979Q539.48126 66.166664 538.73126 66.166664Q538.0125 66.166664 537.575 66.77604Q537.02814 67.55729 537.02814 69.68229ZM542.95 69.68229Q542.95 68.15104 543.2625 67.229164Q543.575 66.291664 544.1844 65.791664Q544.8094 65.291664 545.7469 65.291664Q546.4344 65.291664 546.95 65.572914Q547.48126 65.854164 547.825 66.385414Q548.16876 66.90104 548.35626 67.65104Q548.54376 68.40104 548.54376 69.68229Q548.54376 71.197914 548.23126 72.11979Q547.9344 73.041664 547.3094 73.55729Q546.7 74.05729 545.7469 74.05729Q544.5125 74.05729 543.79376 73.166664Q542.95 72.104164 542.95 69.68229ZM544.02814 69.68229Q544.02814 71.791664 544.52814 72.49479Q545.02814 73.197914 545.7469 73.197914Q546.48126 73.197914 546.96564 72.49479Q547.46564 71.791664 547.46564 69.68229Q547.46564 67.55729 546.96564 66.86979Q546.48126 66.166664 545.73126 66.166664Q545.0125 66.166664 544.575 66.77604Q544.02814 67.55729 544.02814 69.68229Z" fill-rule="nonzero"/><path fill="#000000" d="M145.66875 317.45L144.62187 317.45L144.62187 310.73126Q144.23125 311.09064 143.60625 311.46564Q142.99687 311.825 142.5125 311.9969L142.5125 310.98126Q143.3875 310.5594 144.04375 309.98126Q144.71562 309.3875 144.99687 308.825L145.66875 308.825L145.66875 317.45ZM148.7 313.21564Q148.7 311.6844 149.0125 310.7625Q149.325 309.825 149.93437 309.325Q150.55937 308.825 151.49687 308.825Q152.18437 308.825 152.7 309.10626Q153.23125 309.3875 153.575 309.91876Q153.91875 310.4344 154.10625 311.1844Q154.29375 311.9344 154.29375 313.21564Q154.29375 314.73126 153.98125 315.65314Q153.68437 316.575 153.05937 317.09064Q152.45 317.59064 151.49687 317.59064Q150.2625 317.59064 149.54375 316.7Q148.7 315.6375 148.7 313.21564ZM149.77812 313.21564Q149.77812 315.325 150.27812 316.02814Q150.77812 316.73126 151.49687 316.73126Q152.23125 316.73126 152.71562 316.02814Q153.21562 315.325 153.21562 313.21564Q153.21562 311.09064 152.71562 310.40314Q152.23125 309.7 151.48125 309.7Q150.7625 309.7 150.325 310.3094Q149.77812 311.09064 149.77812 313.21564ZM155.7 313.21564Q155.7 311.6844 156.0125 310.7625Q156.325 309.825 156.93437 309.325Q157.55937 308.825 158.49687 308.825Q159.18437 308.825 159.7 309.10626Q160.23125 309.3875 160.575 309.91876Q160.91875 310.4344 161.10625 311.1844Q161.29375 311.9344 161.29375 313.21564Q161.29375 314.73126 160.98125 315.65314Q160.68437 316.575 160.05937 317.09064Q159.45 317.59064 158.49687 317.59064Q157.2625 317.59064 156.54375 316.7Q155.7 315.6375 155.7 313.21564ZM156.77812 313.21564Q156.77812 315.325 157.27812 316.02814Q157.77812 316.73126 158.49687 316.73126Q159.23125 316.73126 159.71562 316.02814Q160.21562 315.325 160.21562 313.21564Q160.21562 311.09064 159.71562 310.40314Q159.23125 309.7 158.48125 309.7Q157.7625 309.7 157.325 310.3094Q156.77812 311.09064 156.77812 313.21564Z" fill-rule="nonzero"/><path fill="#000000" d="M239.93437 316.4344L239.93437 317.45L234.24687 317.45Q234.24687 317.075 234.37187 316.71564Q234.59062 316.1375 235.05937 315.575Q235.54375 315.0125 236.45 314.27814Q237.85625 313.1219 238.34062 312.45Q238.84062 311.77814 238.84062 311.1844Q238.84062 310.5594 238.3875 310.1375Q237.93437 309.7 237.21562 309.7Q236.45 309.7 235.99687 310.15314Q235.54375 310.60626 235.52812 311.41876L234.45 311.3094Q234.55937 310.09064 235.27812 309.46564Q236.0125 308.825 237.24687 308.825Q238.48125 308.825 239.2 309.5125Q239.91875 310.2 239.91875 311.21564Q239.91875 311.73126 239.7 312.23126Q239.49687 312.71564 238.99687 313.27814Q238.5125 313.825 237.3875 314.77814Q236.43437 315.575 236.15312 315.8719Q235.8875 316.15314 235.71562 316.4344L239.93437 316.4344ZM241.3875 313.21564Q241.3875 311.6844 241.7 310.7625Q242.0125 309.825 242.62187 309.325Q243.24687 308.825 244.18437 308.825Q244.87187 308.825 245.3875 309.10626Q245.91875 309.3875 246.2625 309.91876Q246.60625 310.4344 246.79375 311.1844Q246.98125 311.9344 246.98125 313.21564Q246.98125 314.73126 246.66875 315.65314Q246.37187 316.575 245.74687 317.09064Q245.1375 317.59064 244.18437 317.59064Q242.95 317.59064 242.23125 316.7Q241.3875 315.6375 241.3875 313.21564ZM242.46562 313.21564Q242.46562 315.325 242.96562 316.02814Q243.46562 316.73126 244.18437 316.73126Q244.91875 316.73126 245.40312 316.02814Q245.90312 315.325 245.90312 313.21564Q245.90312 311.09064 245.40312 310.40314Q244.91875 309.7 244.16875 309.7Q243.45 309.7 243.0125 310.3094Q242.46562 311.09064 242.46562 313.21564ZM248.3875 313.21564Q248.3875 311.6844 248.7 310.7625Q249.0125 309.825 249.62187 309.325Q250.24687 308.825 251.18437 308.825Q251.87187 308.825 252.3875 309.10626Q252.91875 309.3875 253.2625 309.91876Q253.60625 310.4344 253.79375 311.1844Q253.98125 311.9344 253.98125 313.21564Q253.98125 314.73126 253.66875 315.65314Q253.37187 316.575 252.74687 317.09064Q252.1375 317.59064 251.18437 317.59064Q249.95 317.59064 249.23125 316.7Q248.3875 315.6375 248.3875 313.21564ZM249.46562 313.21564Q249.46562 315.325 249.96562 316.02814Q250.46562 316.73126 251.18437 316.73126Q251.91875 316.73126 252.40312 316.02814Q252.90312 315.325 252.90312 313.21564Q252.90312 311.09064 252.40312 310.40314Q251.91875 309.7 251.16875 309.7Q250.45 309.7 250.0125 310.3094Q249.46562 311.09064 249.46562 313.21564Z" fill-rule="nonzero"/><path fill="#000000" d="M327.075 315.1844L328.1375 315.04376Q328.3094 315.9344 328.7469 316.34064Q329.1844 316.73126 329.8094 316.73126Q330.5594 316.73126 331.075 316.21564Q331.59064 315.7 331.59064 314.9344Q331.59064 314.21564 331.10626 313.7469Q330.6375 313.2625 329.90314 313.2625Q329.60626 313.2625 329.15314 313.3875L329.27814 312.45Q329.3875 312.46564 329.45 312.46564Q330.1219 312.46564 330.65314 312.1219Q331.2 311.7625 331.2 311.02814Q331.2 310.45 330.8094 310.075Q330.41876 309.6844 329.79376 309.6844Q329.1844 309.6844 328.7625 310.075Q328.35626 310.46564 328.2469 311.23126L327.1844 311.04376Q327.3719 309.9969 328.0594 309.41876Q328.7469 308.825 329.7625 308.825Q330.46564 308.825 331.0594 309.1375Q331.65314 309.4344 331.96564 309.95Q332.27814 310.46564 332.27814 311.0594Q332.27814 311.60626 331.98126 312.075Q331.6844 312.52814 331.10626 312.79376Q331.85626 312.96564 332.27814 313.52814Q332.7 314.075 332.7 314.91876Q332.7 316.04376 331.8719 316.825Q331.0594 317.60626 329.8094 317.60626Q328.6844 317.60626 327.9344 316.9344Q327.1844 316.2469 327.075 315.1844ZM334.075 313.21564Q334.075 311.6844 334.3875 310.7625Q334.7 309.825 335.3094 309.325Q335.9344 308.825 336.8719 308.825Q337.5594 308.825 338.075 309.10626Q338.60626 309.3875 338.95 309.91876Q339.29376 310.4344 339.48126 311.1844Q339.66876 311.9344 339.66876 313.21564Q339.66876 314.73126 339.35626 315.65314Q339.0594 316.575 338.4344 317.09064Q337.825 317.59064 336.8719 317.59064Q335.6375 317.59064 334.91876 316.7Q334.075 315.6375 334.075 313.21564ZM335.15314 313.21564Q335.15314 315.325 335.65314 316.02814Q336.15314 316.73126 336.8719 316.73126Q337.60626 316.73126 338.09064 316.02814Q338.59064 315.325 338.59064 313.21564Q338.59064 311.09064 338.09064 310.40314Q337.60626 309.7 336.85626 309.7Q336.1375 309.7 335.7 310.3094Q335.15314 311.09064 335.15314 313.21564ZM341.075 313.21564Q341.075 311.6844 341.3875 310.7625Q341.7 309.825 342.3094 309.325Q342.9344 308.825 343.8719 308.825Q344.5594 308.825 345.075 309.10626Q345.60626 309.3875 345.95 309.91876Q346.29376 310.4344 346.48126 311.1844Q346.66876 311.9344 346.66876 313.21564Q346.66876 314.73126 346.35626 315.65314Q346.0594 316.575 345.4344 317.09064Q344.825 317.59064 343.8719 317.59064Q342.6375 317.59064 341.91876 316.7Q341.075 315.6375 341.075 313.21564ZM342.15314 313.21564Q342.15314 315.325 342.65314 316.02814Q343.15314 316.73126 343.8719 316.73126Q344.60626 316.73126 345.09064 316.02814Q345.59064 315.325 345.59064 313.21564Q345.59064 311.09064 345.09064 310.40314Q344.60626 309.7 343.85626 309.7Q343.1375 309.7 342.7 310.3094Q342.15314 311.09064 342.15314 313.21564Z" fill-rule="nonzero"/><path fill="#000000" d="M423.1375 317.45L423.1375 315.3875L419.41876 315.3875L419.41876 314.41876L423.34064 308.85626L424.2 308.85626L424.2 314.41876L425.35626 314.41876L425.35626 315.3875L424.2 315.3875L424.2 317.45L423.1375 317.45ZM423.1375 314.41876L423.1375 310.5594L420.45 314.41876L423.1375 314.41876ZM426.7625 313.21564Q426.7625 311.6844 427.075 310.7625Q427.3875 309.825 427.9969 309.325Q428.6219 308.825 429.5594 308.825Q430.2469 308.825 430.7625 309.10626Q431.29376 309.3875 431.6375 309.91876Q431.98126 310.4344 432.16876 311.1844Q432.35626 311.9344 432.35626 313.21564Q432.35626 314.73126 432.04376 315.65314Q431.7469 316.575 431.1219 317.09064Q430.5125 317.59064 429.5594 317.59064Q428.325 317.59064 427.60626 316.7Q426.7625 315.6375 426.7625 313.21564ZM427.84064 313.21564Q427.84064 315.325 428.34064 316.02814Q428.84064 316.73126 429.5594 316.73126Q430.29376 316.73126 430.77814 316.02814Q431.27814 315.325 431.27814 313.21564Q431.27814 311.09064 430.77814 310.40314Q430.29376 309.7 429.54376 309.7Q428.825 309.7 428.3875 310.3094Q427.84064 311.09064 427.84064 313.21564ZM433.7625 313.21564Q433.7625 311.6844 434.075 310.7625Q434.3875 309.825 434.9969 309.325Q435.6219 308.825 436.5594 308.825Q437.2469 308.825 437.7625 309.10626Q438.29376 309.3875 438.6375 309.91876Q438.98126 310.4344 439.16876 311.1844Q439.35626 311.9344 439.35626 313.21564Q439.35626 314.73126 439.04376 315.65314Q438.7469 316.575 438.1219 317.09064Q437.5125 317.59064 436.5594 317.59064Q435.325 317.59064 434.60626 316.7Q433.7625 315.6375 433.7625 313.21564ZM434.84064 313.21564Q434.84064 315.325 435.34064 316.02814Q435.84064 316.73126 436.5594 316.73126Q437.29376 316.73126 437.77814 316.02814Q438.27814 315.325 438.27814 313.21564Q438.27814 311.09064 437.77814 310.40314Q437.29376 309.7 436.54376 309.7Q435.825 309.7 435.3875 310.3094Q434.84064 311.09064 434.84064 313.21564Z" fill-rule="nonzero"/><path fill="#000000" d="M512.45 315.2L513.5594 315.10626Q513.6844 315.91876 514.1219 316.325Q514.575 316.73126 515.21564 316.73126Q515.96564 316.73126 516.4969 316.15314Q517.02814 315.575 517.02814 314.6375Q517.02814 313.73126 516.5125 313.21564Q516.0125 312.6844 515.1844 312.6844Q514.6844 312.6844 514.2625 312.91876Q513.85626 313.15314 513.6219 313.5125L512.6375 313.3875L513.46564 308.98126L517.7469 308.98126L517.7469 309.98126L514.3094 309.98126L513.85626 312.29376Q514.6219 311.7469 515.46564 311.7469Q516.59064 311.7469 517.35626 312.52814Q518.1375 313.3094 518.1375 314.54376Q518.1375 315.7 517.46564 316.5594Q516.6375 317.59064 515.21564 317.59064Q514.04376 317.59064 513.29376 316.9344Q512.5594 316.27814 512.45 315.2ZM519.45 313.21564Q519.45 311.6844 519.7625 310.7625Q520.075 309.825 520.6844 309.325Q521.3094 308.825 522.2469 308.825Q522.9344 308.825 523.45 309.10626Q523.98126 309.3875 524.325 309.91876Q524.66876 310.4344 524.85626 311.1844Q525.04376 311.9344 525.04376 313.21564Q525.04376 314.73126 524.73126 315.65314Q524.4344 316.575 523.8094 317.09064Q523.2 317.59064 522.2469 317.59064Q521.0125 317.59064 520.29376 316.7Q519.45 315.6375 519.45 313.21564ZM520.52814 313.21564Q520.52814 315.325 521.02814 316.02814Q521.52814 316.73126 522.2469 316.73126Q522.98126 316.73126 523.46564 316.02814Q523.96564 315.325 523.96564 313.21564Q523.96564 311.09064 523.46564 310.40314Q522.98126 309.7 522.23126 309.7Q521.5125 309.7 521.075 310.3094Q520.52814 311.09064 520.52814 313.21564ZM526.45 313.21564Q526.45 311.6844 526.7625 310.7625Q527.075 309.825 527.6844 309.325Q528.3094 308.825 529.2469 308.825Q529.9344 308.825 530.45 309.10626Q530.98126 309.3875 531.325 309.91876Q531.66876 310.4344 531.85626 311.1844Q532.04376 311.9344 532.04376 313.21564Q532.04376 314.73126 531.73126 315.65314Q531.4344 316.575 530.8094 317.09064Q530.2 317.59064 529.2469 317.59064Q528.0125 317.59064 527.29376 316.7Q526.45 315.6375 526.45 313.21564ZM527.52814 313.21564Q527.52814 315.325 528.02814 316.02814Q528.52814 316.73126 529.2469 316.73126Q529.98126 316.73126 530.46564 316.02814Q530.96564 315.325 530.96564 313.21564Q530.96564 311.09064 530.46564 310.40314Q529.98126 309.7 529.23126 309.7Q528.5125 309.7 528.075 310.3094Q527.52814 311.09064 527.52814 313.21564Z" fill-rule="nonzero"/><path stroke="#4285f4" stroke-width="4.0" stroke-linecap="butt" d="M74.5 25.55L86.5 25.55" fill-rule="nonzero"/><path fill="#1a1a1a" d="M97.59375 28.6125L97.75 29.534374Q97.296875 29.628124 96.953125 29.628124Q96.375 29.628124 96.0625 29.45625Q95.75 29.26875 95.609375 28.971874Q95.484375 28.675 95.484375 27.721874L95.484375 24.14375L94.71875 24.14375L94.71875 23.33125L95.484375 23.33125L95.484375 21.784374L96.53125 21.159374L96.53125 23.33125L97.59375 23.33125L97.59375 24.14375L96.53125 24.14375L96.53125 27.784374Q96.53125 28.2375 96.578125 28.3625Q96.640625 28.4875 96.765625 28.565624Q96.890625 28.64375 97.125 28.64375Q97.3125 28.64375 97.59375 28.6125ZM98.28125 29.55L98.28125 23.33125L99.234375 23.33125L99.234375 24.26875Q99.59375 23.6125 99.890625 23.409374Q100.203125 23.190624 100.578125 23.190624Q101.109375 23.190624 101.65625 23.51875L101.296875 24.503124Q100.90625 24.26875 100.53125 24.26875Q100.171875 24.26875 99.890625 24.4875Q99.625 24.690624 99.515625 25.065624Q99.328125 25.628124 99.328125 26.284374L99.328125 29.55L98.28125 29.55ZM106.375 29.55L106.375 28.628124Q105.640625 29.690624 104.390625 29.690624Q103.84375 29.690624 103.359375 29.4875Q102.890625 29.26875 102.65625 28.95625Q102.421875 28.628124 102.328125 28.159374Q102.265625 27.8625 102.265625 27.175L102.265625 23.33125L103.328125 23.33125L103.328125 26.784374Q103.328125 27.596874 103.390625 27.89375Q103.484375 28.3 103.796875 28.55Q104.125 28.784374 104.609375 28.784374Q105.078125 28.784374 105.484375 28.55Q105.90625 28.3 106.078125 27.878124Q106.265625 27.45625 106.265625 26.659374L106.265625 23.33125L107.3125 23.33125L107.3125 29.55L106.375 29.55ZM108.875 27.690624L109.90625 27.534374Q110.0 28.159374 110.390625 28.4875Q110.796875 28.815624 111.53125 28.815624Q112.25 28.815624 112.59375 28.534374Q112.953125 28.2375 112.953125 27.83125Q112.953125 27.471874 112.640625 27.26875Q112.421875 27.128124 111.5625 26.909374Q110.40625 26.6125 109.953125 26.409374Q109.515625 26.190624 109.28125 25.815624Q109.046875 25.440624 109.046875 24.971874Q109.046875 24.565624 109.234375 24.20625Q109.421875 23.846874 109.75 23.6125Q110.0 23.440624 110.421875 23.315624Q110.84375 23.190624 111.34375 23.190624Q112.0625 23.190624 112.609375 23.409374Q113.171875 23.6125 113.4375 23.971874Q113.703125 24.33125 113.796875 24.925L112.765625 25.065624Q112.703125 24.596874 112.359375 24.33125Q112.03125 24.05 111.40625 24.05Q110.6875 24.05 110.375 24.3Q110.0625 24.534374 110.0625 24.8625Q110.0625 25.065624 110.1875 25.221874Q110.328125 25.39375 110.59375 25.503124Q110.75 25.565624 111.53125 25.76875Q112.65625 26.08125 113.09375 26.26875Q113.53125 26.45625 113.78125 26.815624Q114.03125 27.175 114.03125 27.721874Q114.03125 28.253124 113.71875 28.721874Q113.421875 29.175 112.84375 29.440624Q112.265625 29.690624 111.53125 29.690624Q110.3125 29.690624 109.671875 29.190624Q109.046875 28.675 108.875 27.690624ZM118.59375 28.6125L118.75 29.534374Q118.296875 29.628124 117.953125 29.628124Q117.375 29.628124 117.0625 29.45625Q116.75 29.26875 116.609375 28.971874Q116.484375 28.675 116.484375 27.721874L116.484375 24.14375L115.71875 24.14375L115.71875 23.33125L116.484375 23.33125L116.484375 21.784374L117.53125 21.159374L117.53125 23.33125L118.59375 23.33125L118.59375 24.14375L117.53125 24.14375L117.53125 27.784374Q117.53125 28.2375 117.578125 28.3625Q117.640625 28.4875 117.765625 28.565624Q117.890625 28.64375 118.125 28.64375Q118.3125 28.64375 118.59375 28.6125ZM118.875 26.971874L118.875 25.909374L122.125 25.909374L122.125 26.971874L118.875 26.971874ZM127.546875 27.55L128.64062 27.675Q128.39062 28.628124 127.6875 29.159374Q126.984375 29.690624 125.90625 29.690624Q124.546875 29.690624 123.734375 28.846874Q122.9375 28.003124 122.9375 26.4875Q122.9375 24.925 123.75 24.065624Q124.5625 23.190624 125.84375 23.190624Q127.09375 23.190624 127.875 24.034374Q128.67188 24.878124 128.67188 26.425Q128.67188 26.51875 128.67188 26.70625L124.03125 26.70625Q124.09375 27.7375 124.609375 28.284374Q125.125 28.815624 125.90625 28.815624Q126.484375 28.815624 126.890625 28.51875Q127.3125 28.20625 127.546875 27.55ZM124.09375 25.846874L127.5625 25.846874Q127.5 25.05 127.171875 24.659374Q126.65625 24.05 125.859375 24.05Q125.125 24.05 124.625 24.534374Q124.140625 25.01875 124.09375 25.846874ZM129.59375 29.55L131.85938 26.315624L129.76562 23.33125L131.07812 23.33125L132.03125 24.784374Q132.29688 25.20625 132.46875 25.4875Q132.71875 25.096874 132.9375 24.8L133.98438 23.33125L135.25 23.33125L133.09375 26.253124L135.40625 29.55L134.125 29.55L132.84375 27.6125L132.5 27.096874L130.85938 29.55L129.59375 29.55ZM137.59375 28.6125L137.75 29.534374Q137.29688 29.628124 136.95312 29.628124Q136.375 29.628124 136.0625 29.45625Q135.75 29.26875 135.60938 28.971874Q135.48438 28.675 135.48438 27.721874L135.48438 24.14375L134.71875 24.14375L134.71875 23.33125L135.48438 23.33125L135.48438 21.784374L136.53125 21.159374L136.53125 23.33125L137.59375 23.33125L137.59375 24.14375L136.53125 24.14375L136.53125 27.784374Q136.53125 28.2375 136.57812 28.3625Q136.64062 28.4875 136.76562 28.565624Q136.89062 28.64375 137.125 28.64375Q137.3125 28.64375 137.59375 28.6125ZM142.54688 27.55L143.64062 27.675Q143.39062 28.628124 142.6875 29.159374Q141.98438 29.690624 140.90625 29.690624Q139.54688 29.690624 138.73438 28.846874Q137.9375 28.003124 137.9375 26.4875Q137.9375 24.925 138.75 24.065624Q139.5625 23.190624 140.84375 23.190624Q142.09375 23.190624 142.875 24.034374Q143.67188 24.878124 143.67188 26.425Q143.67188 26.51875 143.67188 26.70625L139.03125 26.70625Q139.09375 27.7375 139.60938 28.284374Q140.125 28.815624 140.90625 28.815624Q141.48438 28.815624 141.89062 28.51875Q142.3125 28.20625 142.54688 27.55ZM139.09375 25.846874L142.5625 25.846874Q142.5 25.05 142.17188 24.659374Q141.65625 24.05 140.85938 24.05Q140.125 24.05 139.625 24.534374Q139.14062 25.01875 139.09375 25.846874ZM145.29688 29.55L145.29688 23.33125L146.23438 23.33125L146.23438 24.20625Q146.92188 23.190624 148.21875 23.190624Q148.78125 23.190624 149.25 23.39375Q149.73438 23.596874 149.96875 23.925Q150.20312 24.253124 150.29688 24.690624Q150.34375 24.9875 150.34375 25.721874L150.34375 29.55L149.29688 29.55L149.29688 25.76875Q149.29688 25.1125 149.17188 24.8Q149.04688 24.4875 148.73438 24.3Q148.42188 24.096874 148.0 24.096874Q147.32812 24.096874 146.82812 24.534374Q146.34375 24.95625 146.34375 26.14375L146.34375 29.55L145.29688 29.55ZM151.875 27.690624L152.90625 27.534374Q153.0 28.159374 153.39062 28.4875Q153.79688 28.815624 154.53125 28.815624Q155.25 28.815624 155.59375 28.534374Q155.95312 28.2375 155.95312 27.83125Q155.95312 27.471874 155.64062 27.26875Q155.42188 27.128124 154.5625 26.909374Q153.40625 26.6125 152.95312 26.409374Q152.51562 26.190624 152.28125 25.815624Q152.04688 25.440624 152.04688 24.971874Q152.04688 24.565624 152.23438 24.20625Q152.42188 23.846874 152.75 23.6125Q153.0 23.440624 153.42188 23.315624Q153.84375 23.190624 154.34375 23.190624Q155.0625 23.190624 155.60938 23.409374Q156.17188 23.6125 156.4375 23.971874Q156.70312 24.33125 156.79688 24.925L155.76562 25.065624Q155.70312 24.596874 155.35938 24.33125Q155.03125 24.05 154.40625 24.05Q153.6875 24.05 153.375 24.3Q153.0625 24.534374 153.0625 24.8625Q153.0625 25.065624 153.1875 25.221874Q153.32812 25.39375 153.59375 25.503124Q153.75 25.565624 154.53125 25.76875Q155.65625 26.08125 156.09375 26.26875Q156.53125 26.45625 156.78125 26.815624Q157.03125 27.175 157.03125 27.721874Q157.03125 28.253124 156.71875 28.721874Q156.42188 29.175 155.84375 29.440624Q155.26562 29.690624 154.53125 29.690624Q153.3125 29.690624 152.67188 29.190624Q152.04688 28.675 151.875 27.690624ZM159.29688 22.175L159.29688 20.95625L160.35938 20.95625L160.35938 22.175L159.29688 22.175ZM159.29688 29.55L159.29688 23.33125L160.35938 23.33125L160.35938 29.55L159.29688 29.55ZM161.90625 26.440624Q161.90625 24.70625 162.85938 23.878124Q163.65625 23.190624 164.8125 23.190624Q166.09375 23.190624 166.90625 24.034374Q167.73438 24.8625 167.73438 26.346874Q167.73438 27.55 167.375 28.2375Q167.01562 28.925 166.3125 29.315624Q165.625 29.690624 164.8125 29.690624Q163.51562 29.690624 162.70312 28.8625Q161.90625 28.01875 161.90625 26.440624ZM162.98438 26.440624Q162.98438 27.628124 163.5 28.221874Q164.03125 28.815624 164.8125 28.815624Q165.60938 28.815624 166.125 28.221874Q166.64062 27.628124 166.64062 26.409374Q166.64062 25.253124 166.10938 24.659374Q165.59375 24.065624 164.8125 24.065624Q164.03125 24.065624 163.5 24.659374Q162.98438 25.2375 162.98438 26.440624ZM169.29688 29.55L169.29688 23.33125L170.23438 23.33125L170.23438 24.20625Q170.92188 23.190624 172.21875 23.190624Q172.78125 23.190624 173.25 23.39375Q173.73438 23.596874 173.96875 23.925Q174.20312 24.253124 174.29688 24.690624Q174.34375 24.9875 174.34375 25.721874L174.34375 29.55L173.29688 29.55L173.29688 25.76875Q173.29688 25.1125 173.17188 24.8Q173.04688 24.4875 172.73438 24.3Q172.42188 24.096874 172.0 24.096874Q171.32812 24.096874 170.82812 24.534374Q170.34375 24.95625 170.34375 26.14375L170.34375 29.55L169.29688 29.55ZM183.35938 27.26875L184.39062 27.409374Q184.21875 28.471874 183.51562 29.08125Q182.8125 29.690624 181.79688 29.690624Q180.51562 29.690624 179.73438 28.8625Q178.96875 28.01875 178.96875 26.45625Q178.96875 25.45625 179.29688 24.70625Q179.64062 23.940624 180.3125 23.565624Q181.0 23.190624 181.8125 23.190624Q182.8125 23.190624 183.45312 23.70625Q184.10938 24.20625 184.29688 25.159374L183.26562 25.315624Q183.125 24.690624 182.75 24.378124Q182.375 24.05 181.84375 24.05Q181.04688 24.05 180.54688 24.628124Q180.04688 25.190624 180.04688 26.425Q180.04688 27.690624 180.53125 28.253124Q181.01562 28.815624 181.78125 28.815624Q182.40625 28.815624 182.8125 28.440624Q183.23438 28.065624 183.35938 27.26875ZM185.29688 31.940624L185.29688 23.33125L186.25 23.33125L186.25 24.128124Q186.59375 23.659374 187.01562 23.425Q187.45312 23.190624 188.0625 23.190624Q188.85938 23.190624 189.46875 23.596874Q190.07812 24.003124 190.375 24.753124Q190.6875 25.503124 190.6875 26.39375Q190.6875 27.346874 190.34375 28.1125Q190.01562 28.878124 189.35938 29.284374Q188.70312 29.690624 187.98438 29.690624Q187.45312 29.690624 187.03125 29.471874Q186.60938 29.2375 186.34375 28.909374L186.34375 31.940624L185.29688 31.940624ZM186.25 26.471874Q186.25 27.675 186.73438 28.253124Q187.21875 28.815624 187.90625 28.815624Q188.60938 28.815624 189.10938 28.221874Q189.60938 27.628124 189.60938 26.378124Q189.60938 25.190624 189.125 24.6125Q188.64062 24.01875 187.95312 24.01875Q187.28125 24.01875 186.76562 24.64375Q186.25 25.26875 186.25 26.471874ZM196.375 29.55L196.375 28.628124Q195.64062 29.690624 194.39062 29.690624Q193.84375 29.690624 193.35938 29.4875Q192.89062 29.26875 192.65625 28.95625Q192.42188 28.628124 192.32812 28.159374Q192.26562 27.8625 192.26562 27.175L192.26562 23.33125L193.32812 23.33125L193.32812 26.784374Q193.32812 27.596874 193.39062 27.89375Q193.48438 28.3 193.79688 28.55Q194.125 28.784374 194.60938 28.784374Q195.07812 28.784374 195.48438 28.55Q195.90625 28.3 196.07812 27.878124Q196.26562 27.45625 196.26562 26.659374L196.26562 23.33125L197.3125 23.33125L197.3125 29.55L196.375 29.55Z" fill-rule="nonzero"/><path stroke="#4a86e8" stroke-width="4.0" stroke-linecap="butt" stroke-dasharray="13.0,9.0" d="M214.5 25.55L249.5 25.55" fill-rule="nonzero"/><path fill="#1a1a1a" d="M260.59375 28.6125L260.75 29.534374Q260.29688 29.628124 259.95312 29.628124Q259.375 29.628124 259.0625 29.45625Q258.75 29.26875 258.60938 28.971874Q258.48438 28.675 258.48438 27.721874L258.48438 24.14375L257.71875 24.14375L257.71875 23.33125L258.48438 23.33125L258.48438 21.784374L259.53125 21.159374L259.53125 23.33125L260.59375 23.33125L260.59375 24.14375L259.53125 24.14375L259.53125 27.784374Q259.53125 28.2375 259.57812 28.3625Q259.64062 28.4875 259.76562 28.565624Q259.89062 28.64375 260.125 28.64375Q260.3125 28.64375 260.59375 28.6125ZM261.28125 29.55L261.28125 23.33125L262.23438 23.33125L262.23438 24.26875Q262.59375 23.6125 262.89062 23.409374Q263.20312 23.190624 263.57812 23.190624Q264.10938 23.190624 264.65625 23.51875L264.29688 24.503124Q263.90625 24.26875 263.53125 24.26875Q263.17188 24.26875 262.89062 24.4875Q262.625 24.690624 262.51562 25.065624Q262.32812 25.628124 262.32812 26.284374L262.32812 29.55L261.28125 29.55ZM269.375 29.55L269.375 28.628124Q268.64062 29.690624 267.39062 29.690624Q266.84375 29.690624 266.35938 29.4875Q265.89062 29.26875 265.65625 28.95625Q265.42188 28.628124 265.32812 28.159374Q265.26562 27.8625 265.26562 27.175L265.26562 23.33125L266.32812 23.33125L266.32812 26.784374Q266.32812 27.596874 266.39062 27.89375Q266.48438 28.3 266.79688 28.55Q267.125 28.784374 267.60938 28.784374Q268.07812 28.784374 268.48438 28.55Q268.90625 28.3 269.07812 27.878124Q269.26562 27.45625 269.26562 26.659374L269.26562 23.33125L270.3125 23.33125L270.3125 29.55L269.375 29.55ZM271.875 27.690624L272.90625 27.534374Q273.0 28.159374 273.39062 28.4875Q273.79688 28.815624 274.53125 28.815624Q275.25 28.815624 275.59375 28.534374Q275.95312 28.2375 275.95312 27.83125Q275.95312 27.471874 275.64062 27.26875Q275.42188 27.128124 274.5625 26.909374Q273.40625 26.6125 272.95312 26.409374Q272.51562 26.190624 272.28125 25.815624Q272.04688 25.440624 272.04688 24.971874Q272.04688 24.565624 272.23438 24.20625Q272.42188 23.846874 272.75 23.6125Q273.0 23.440624 273.42188 23.315624Q273.84375 23.190624 274.34375 23.190624Q275.0625 23.190624 275.60938 23.409374Q276.17188 23.6125 276.4375 23.971874Q276.70312 24.33125 276.79688 24.925L275.76562 25.065624Q275.70312 24.596874 275.35938 24.33125Q275.03125 24.05 274.40625 24.05Q273.6875 24.05 273.375 24.3Q273.0625 24.534374 273.0625 24.8625Q273.0625 25.065624 273.1875 25.221874Q273.32812 25.39375 273.59375 25.503124Q273.75 25.565624 274.53125 25.76875Q275.65625 26.08125 276.09375 26.26875Q276.53125 26.45625 276.78125 26.815624Q277.03125 27.175 277.03125 27.721874Q277.03125 28.253124 276.71875 28.721874Q276.42188 29.175 275.84375 29.440624Q275.26562 29.690624 274.53125 29.690624Q273.3125 29.690624 272.67188 29.190624Q272.04688 28.675 271.875 27.690624ZM281.59375 28.6125L281.75 29.534374Q281.29688 29.628124 280.95312 29.628124Q280.375 29.628124 280.0625 29.45625Q279.75 29.26875 279.60938 28.971874Q279.48438 28.675 279.48438 27.721874L279.48438 24.14375L278.71875 24.14375L278.71875 23.33125L279.48438 23.33125L279.48438 21.784374L280.53125 21.159374L280.53125 23.33125L281.59375 23.33125L281.59375 24.14375L280.53125 24.14375L280.53125 27.784374Q280.53125 28.2375 280.57812 28.3625Q280.64062 28.4875 280.76562 28.565624Q280.89062 28.64375 281.125 28.64375Q281.3125 28.64375 281.59375 28.6125ZM281.875 26.971874L281.875 25.909374L285.125 25.909374L285.125 26.971874L281.875 26.971874ZM290.54688 27.55L291.64062 27.675Q291.39062 28.628124 290.6875 29.159374Q289.98438 29.690624 288.90625 29.690624Q287.54688 29.690624 286.73438 28.846874Q285.9375 28.003124 285.9375 26.4875Q285.9375 24.925 286.75 24.065624Q287.5625 23.190624 288.84375 23.190624Q290.09375 23.190624 290.875 24.034374Q291.67188 24.878124 291.67188 26.425Q291.67188 26.51875 291.67188 26.70625L287.03125 26.70625Q287.09375 27.7375 287.60938 28.284374Q288.125 28.815624 288.90625 28.815624Q289.48438 28.815624 289.89062 28.51875Q290.3125 28.20625 290.54688 27.55ZM287.09375 25.846874L290.5625 25.846874Q290.5 25.05 290.17188 24.659374Q289.65625 24.05 288.85938 24.05Q288.125 24.05 287.625 24.534374Q287.14062 25.01875 287.09375 25.846874ZM292.59375 29.55L294.85938 26.315624L292.76562 23.33125L294.07812 23.33125L295.03125 24.784374Q295.29688 25.20625 295.46875 25.4875Q295.71875 25.096874 295.9375 24.8L296.98438 23.33125L298.25 23.33125L296.09375 26.253124L298.40625 29.55L297.125 29.55L295.84375 27.6125L295.5 27.096874L293.85938 29.55L292.59375 29.55ZM300.59375 28.6125L300.75 29.534374Q300.29688 29.628124 299.95312 29.628124Q299.375 29.628124 299.0625 29.45625Q298.75 29.26875 298.60938 28.971874Q298.48438 28.675 298.48438 27.721874L298.48438 24.14375L297.71875 24.14375L297.71875 23.33125L298.48438 23.33125L298.48438 21.784374L299.53125 21.159374L299.53125 23.33125L300.59375 23.33125L300.59375 24.14375L299.53125 24.14375L299.53125 27.784374Q299.53125 28.2375 299.57812 28.3625Q299.64062 28.4875 299.76562 28.565624Q299.89062 28.64375 300.125 28.64375Q300.3125 28.64375 300.59375 28.6125ZM305.54688 27.55L306.64062 27.675Q306.39062 28.628124 305.6875 29.159374Q304.98438 29.690624 303.90625 29.690624Q302.54688 29.690624 301.73438 28.846874Q300.9375 28.003124 300.9375 26.4875Q300.9375 24.925 301.75 24.065624Q302.5625 23.190624 303.84375 23.190624Q305.09375 23.190624 305.875 24.034374Q306.67188 24.878124 306.67188 26.425Q306.67188 26.51875 306.67188 26.70625L302.03125 26.70625Q302.09375 27.7375 302.60938 28.284374Q303.125 28.815624 303.90625 28.815624Q304.48438 28.815624 304.89062 28.51875Q305.3125 28.20625 305.54688 27.55ZM302.09375 25.846874L305.5625 25.846874Q305.5 25.05 305.17188 24.659374Q304.65625 24.05 303.85938 24.05Q303.125 24.05 302.625 24.534374Q302.14062 25.01875 302.09375 25.846874ZM308.29688 29.55L308.29688 23.33125L309.23438 23.33125L309.23438 24.20625Q309.92188 23.190624 311.21875 23.190624Q311.78125 23.190624 312.25 23.39375Q312.73438 23.596874 312.96875 23.925Q313.20312 24.253124 313.29688 24.690624Q313.34375 24.9875 313.34375 25.721874L313.34375 29.55L312.29688 29.55L312.29688 25.76875Q312.29688 25.1125 312.17188 24.8Q312.04688 24.4875 311.73438 24.3Q311.42188 24.096874 311.0 24.096874Q310.32812 24.096874 309.82812 24.534374Q309.34375 24.95625 309.34375 26.14375L309.34375 29.55L308.29688 29.55ZM314.875 27.690624L315.90625 27.534374Q316.0 28.159374 316.39062 28.4875Q316.79688 28.815624 317.53125 28.815624Q318.25 28.815624 318.59375 28.534374Q318.95312 28.2375 318.95312 27.83125Q318.95312 27.471874 318.64062 27.26875Q318.42188 27.128124 317.5625 26.909374Q316.40625 26.6125 315.95312 26.409374Q315.51562 26.190624 315.28125 25.815624Q315.04688 25.440624 315.04688 24.971874Q315.04688 24.565624 315.23438 24.20625Q315.42188 23.846874 315.75 23.6125Q316.0 23.440624 316.42188 23.315624Q316.84375 23.190624 317.34375 23.190624Q318.0625 23.190624 318.60938 23.409374Q319.17188 23.6125 319.4375 23.971874Q319.70312 24.33125 319.79688 24.925L318.76562 25.065624Q318.70312 24.596874 318.35938 24.33125Q318.03125 24.05 317.40625 24.05Q316.6875 24.05 316.375 24.3Q316.0625 24.534374 316.0625 24.8625Q316.0625 25.065624 316.1875 25.221874Q316.32812 25.39375 316.59375 25.503124Q316.75 25.565624 317.53125 25.76875Q318.65625 26.08125 319.09375 26.26875Q319.53125 26.45625 319.78125 26.815624Q320.03125 27.175 320.03125 27.721874Q320.03125 28.253124 319.71875 28.721874Q319.42188 29.175 318.84375 29.440624Q318.26562 29.690624 317.53125 29.690624Q316.3125 29.690624 315.67188 29.190624Q315.04688 28.675 314.875 27.690624ZM322.29688 22.175L322.29688 20.95625L323.35938 20.95625L323.35938 22.175L322.29688 22.175ZM322.29688 29.55L322.29688 23.33125L323.35938 23.33125L323.35938 29.55L322.29688 29.55ZM324.90625 26.440624Q324.90625 24.70625 325.85938 23.878124Q326.65625 23.190624 327.8125 23.190624Q329.09375 23.190624 329.90625 24.034374Q330.73438 24.8625 330.73438 26.346874Q330.73438 27.55 330.375 28.2375Q330.01562 28.925 329.3125 29.315624Q328.625 29.690624 327.8125 29.690624Q326.51562 29.690624 325.70312 28.8625Q324.90625 28.01875 324.90625 26.440624ZM325.98438 26.440624Q325.98438 27.628124 326.5 28.221874Q327.03125 28.815624 327.8125 28.815624Q328.60938 28.815624 329.125 28.221874Q329.64062 27.628124 329.64062 26.409374Q329.64062 25.253124 329.10938 24.659374Q328.59375 24.065624 327.8125 24.065624Q327.03125 24.065624 326.5 24.659374Q325.98438 25.2375 325.98438 26.440624ZM332.29688 29.55L332.29688 23.33125L333.23438 23.33125L333.23438 24.20625Q333.92188 23.190624 335.21875 23.190624Q335.78125 23.190624 336.25 23.39375Q336.73438 23.596874 336.96875 23.925Q337.20312 24.253124 337.29688 24.690624Q337.34375 24.9875 337.34375 25.721874L337.34375 29.55L336.29688 29.55L336.29688 25.76875Q336.29688 25.1125 336.17188 24.8Q336.04688 24.4875 335.73438 24.3Q335.42188 24.096874 335.0 24.096874Q334.32812 24.096874 333.82812 24.534374Q333.34375 24.95625 333.34375 26.14375L333.34375 29.55L332.29688 29.55ZM342.28125 29.55L342.28125 23.33125L343.23438 23.33125L343.23438 24.26875Q343.59375 23.6125 343.89062 23.409374Q344.20312 23.190624 344.57812 23.190624Q345.10938 23.190624 345.65625 23.51875L345.29688 24.503124Q344.90625 24.26875 344.53125 24.26875Q344.17188 24.26875 343.89062 24.4875Q343.625 24.690624 343.51562 25.065624Q343.32812 25.628124 343.32812 26.284374L343.32812 29.55L342.28125 29.55ZM350.35938 28.784374Q349.76562 29.284374 349.21875 29.4875Q348.6875 29.690624 348.0625 29.690624Q347.03125 29.690624 346.48438 29.190624Q345.9375 28.690624 345.9375 27.909374Q345.9375 27.45625 346.14062 27.08125Q346.34375 26.690624 346.6875 26.471874Q347.03125 26.2375 347.45312 26.128124Q347.75 26.034374 348.39062 25.95625Q349.65625 25.815624 350.26562 25.596874Q350.26562 25.378124 350.26562 25.33125Q350.26562 24.675 349.96875 24.409374Q349.5625 24.065624 348.76562 24.065624Q348.03125 24.065624 347.67188 24.33125Q347.3125 24.58125 347.14062 25.2375L346.10938 25.096874Q346.25 24.440624 346.57812 24.034374Q346.90625 23.628124 347.51562 23.409374Q348.125 23.190624 348.92188 23.190624Q349.71875 23.190624 350.21875 23.378124Q350.71875 23.565624 350.95312 23.846874Q351.1875 24.128124 351.28125 24.565624Q351.32812 24.83125 351.32812 25.534374L351.32812 26.940624Q351.32812 28.409374 351.39062 28.8Q351.46875 29.190624 351.67188 29.55L350.5625 29.55Q350.40625 29.221874 350.35938 28.784374ZM350.26562 26.425Q349.6875 26.659374 348.54688 26.83125Q347.89062 26.925 347.625 27.05Q347.35938 27.159374 347.20312 27.378124Q347.0625 27.596874 347.0625 27.878124Q347.0625 28.3 347.375 28.58125Q347.70312 28.8625 348.3125 28.8625Q348.92188 28.8625 349.39062 28.596874Q349.875 28.33125 350.09375 27.8625Q350.26562 27.503124 350.26562 26.815624L350.26562 26.425ZM353.29688 29.55L353.29688 23.33125L354.23438 23.33125L354.23438 24.20625Q354.53125 23.7375 355.01562 23.471874Q355.5 23.190624 356.125 23.190624Q356.8125 23.190624 357.25 23.471874Q357.70312 23.753124 357.875 24.26875Q358.625 23.190624 359.79688 23.190624Q360.73438 23.190624 361.21875 23.70625Q361.71875 24.20625 361.71875 25.284374L361.71875 29.55L360.67188 29.55L360.67188 25.628124Q360.67188 25.003124 360.5625 24.721874Q360.46875 24.440624 360.20312 24.26875Q359.9375 24.096874 359.5625 24.096874Q358.90625 24.096874 358.46875 24.534374Q358.04688 24.971874 358.04688 25.940624L358.04688 29.55L356.98438 29.55L356.98438 25.503124Q356.98438 24.8 356.71875 24.45625Q356.46875 24.096874 355.89062 24.096874Q355.4375 24.096874 355.0625 24.33125Q354.6875 24.565624 354.51562 25.01875Q354.34375 25.471874 354.34375 26.315624L354.34375 29.55L353.29688 29.55Z" fill-rule="nonzero"/><path stroke="#ff0000" stroke-width="4.0" stroke-linecap="butt" d="M379.5 25.55L391.5 25.55" fill-rule="nonzero"/><path fill="#1a1a1a" d="M404.35938 28.784374Q403.76562 29.284374 403.21875 29.4875Q402.6875 29.690624 402.0625 29.690624Q401.03125 29.690624 400.48438 29.190624Q399.9375 28.690624 399.9375 27.909374Q399.9375 27.45625 400.14062 27.08125Q400.34375 26.690624 400.6875 26.471874Q401.03125 26.2375 401.45312 26.128124Q401.75 26.034374 402.39062 25.95625Q403.65625 25.815624 404.26562 25.596874Q404.26562 25.378124 404.26562 25.33125Q404.26562 24.675 403.96875 24.409374Q403.5625 24.065624 402.76562 24.065624Q402.03125 24.065624 401.67188 24.33125Q401.3125 24.58125 401.14062 25.2375L400.10938 25.096874Q400.25 24.440624 400.57812 24.034374Q400.90625 23.628124 401.51562 23.409374Q402.125 23.190624 402.92188 23.190624Q403.71875 23.190624 404.21875 23.378124Q404.71875 23.565624 404.95312 23.846874Q405.1875 24.128124 405.28125 24.565624Q405.32812 24.83125 405.32812 25.534374L405.32812 26.940624Q405.32812 28.409374 405.39062 28.8Q405.46875 29.190624 405.67188 29.55L404.5625 29.55Q404.40625 29.221874 404.35938 28.784374ZM404.26562 26.425Q403.6875 26.659374 402.54688 26.83125Q401.89062 26.925 401.625 27.05Q401.35938 27.159374 401.20312 27.378124Q401.0625 27.596874 401.0625 27.878124Q401.0625 28.3 401.375 28.58125Q401.70312 28.8625 402.3125 28.8625Q402.92188 28.8625 403.39062 28.596874Q403.875 28.33125 404.09375 27.8625Q404.26562 27.503124 404.26562 26.815624L404.26562 26.425ZM407.26562 29.55L407.26562 20.95625L408.32812 20.95625L408.32812 29.55L407.26562 29.55ZM410.26562 29.55L410.26562 20.95625L411.32812 20.95625L411.32812 29.55L410.26562 29.55ZM412.90625 26.440624Q412.90625 24.70625 413.85938 23.878124Q414.65625 23.190624 415.8125 23.190624Q417.09375 23.190624 417.90625 24.034374Q418.73438 24.8625 418.73438 26.346874Q418.73438 27.55 418.375 28.2375Q418.01562 28.925 417.3125 29.315624Q416.625 29.690624 415.8125 29.690624Q414.51562 29.690624 413.70312 28.8625Q412.90625 28.01875 412.90625 26.440624ZM413.98438 26.440624Q413.98438 27.628124 414.5 28.221874Q415.03125 28.815624 415.8125 28.815624Q416.60938 28.815624 417.125 28.221874Q417.64062 27.628124 417.64062 26.409374Q417.64062 25.253124 417.10938 24.659374Q416.59375 24.065624 415.8125 24.065624Q415.03125 24.065624 414.5 24.659374Q413.98438 25.2375 413.98438 26.440624ZM421.4375 29.55L419.53125 23.33125L420.625 23.33125L421.60938 26.925L421.98438 28.253124Q422.01562 28.159374 422.3125 26.971874L423.29688 23.33125L424.375 23.33125L425.3125 26.940624L425.625 28.128124L425.98438 26.925L427.04688 23.33125L428.07812 23.33125L426.125 29.55L425.03125 29.55L424.04688 25.815624L423.79688 24.76875L422.54688 29.55L421.4375 29.55ZM428.875 26.971874L428.875 25.909374L432.125 25.909374L432.125 26.971874L428.875 26.971874ZM437.35938 28.784374Q436.76562 29.284374 436.21875 29.4875Q435.6875 29.690624 435.0625 29.690624Q434.03125 29.690624 433.48438 29.190624Q432.9375 28.690624 432.9375 27.909374Q432.9375 27.45625 433.14062 27.08125Q433.34375 26.690624 433.6875 26.471874Q434.03125 26.2375 434.45312 26.128124Q434.75 26.034374 435.39062 25.95625Q436.65625 25.815624 437.26562 25.596874Q437.26562 25.378124 437.26562 25.33125Q437.26562 24.675 436.96875 24.409374Q436.5625 24.065624 435.76562 24.065624Q435.03125 24.065624 434.67188 24.33125Q434.3125 24.58125 434.14062 25.2375L433.10938 25.096874Q433.25 24.440624 433.57812 24.034374Q433.90625 23.628124 434.51562 23.409374Q435.125 23.190624 435.92188 23.190624Q436.71875 23.190624 437.21875 23.378124Q437.71875 23.565624 437.95312 23.846874Q438.1875 24.128124 438.28125 24.565624Q438.32812 24.83125 438.32812 25.534374L438.32812 26.940624Q438.32812 28.409374 438.39062 28.8Q438.46875 29.190624 438.67188 29.55L437.5625 29.55Q437.40625 29.221874 437.35938 28.784374ZM437.26562 26.425Q436.6875 26.659374 435.54688 26.83125Q434.89062 26.925 434.625 27.05Q434.35938 27.159374 434.20312 27.378124Q434.0625 27.596874 434.0625 27.878124Q434.0625 28.3 434.375 28.58125Q434.70312 28.8625 435.3125 28.8625Q435.92188 28.8625 436.39062 28.596874Q436.875 28.33125 437.09375 27.8625Q437.26562 27.503124 437.26562 26.815624L437.26562 26.425ZM440.26562 29.55L440.26562 20.95625L441.32812 20.95625L441.32812 29.55L440.26562 29.55ZM443.26562 29.55L443.26562 20.95625L444.32812 20.95625L444.32812 29.55L443.26562 29.55ZM445.875 26.971874L445.875 25.909374L449.125 25.909374L449.125 26.971874L445.875 26.971874ZM454.54688 27.55L455.64062 27.675Q455.39062 28.628124 454.6875 29.159374Q453.98438 29.690624 452.90625 29.690624Q451.54688 29.690624 450.73438 28.846874Q449.9375 28.003124 449.9375 26.4875Q449.9375 24.925 450.75 24.065624Q451.5625 23.190624 452.84375 23.190624Q454.09375 23.190624 454.875 24.034374Q455.67188 24.878124 455.67188 26.425Q455.67188 26.51875 455.67188 26.70625L451.03125 26.70625Q451.09375 27.7375 451.60938 28.284374Q452.125 28.815624 452.90625 28.815624Q453.48438 28.815624 453.89062 28.51875Q454.3125 28.20625 454.54688 27.55ZM451.09375 25.846874L454.5625 25.846874Q454.5 25.05 454.17188 24.659374Q453.65625 24.05 452.85938 24.05Q452.125 24.05 451.625 24.534374Q451.14062 25.01875 451.09375 25.846874ZM456.59375 29.55L458.85938 26.315624L456.76562 23.33125L458.07812 23.33125L459.03125 24.784374Q459.29688 25.20625 459.46875 25.4875Q459.71875 25.096874 459.9375 24.8L460.98438 23.33125L462.25 23.33125L460.09375 26.253124L462.40625 29.55L461.125 29.55L459.84375 27.6125L459.5 27.096874L457.85938 29.55L456.59375 29.55ZM464.59375 28.6125L464.75 29.534374Q464.29688 29.628124 463.95312 29.628124Q463.375 29.628124 463.0625 29.45625Q462.75 29.26875 462.60938 28.971874Q462.48438 28.675 462.48438 27.721874L462.48438 24.14375L461.71875 24.14375L461.71875 23.33125L462.48438 23.33125L462.48438 21.784374L463.53125 21.159374L463.53125 23.33125L464.59375 23.33125L464.59375 24.14375L463.53125 24.14375L463.53125 27.784374Q463.53125 28.2375 463.57812 28.3625Q463.64062 28.4875 463.76562 28.565624Q463.89062 28.64375 464.125 28.64375Q464.3125 28.64375 464.59375 28.6125ZM469.54688 27.55L470.64062 27.675Q470.39062 28.628124 469.6875 29.159374Q468.98438 29.690624 467.90625 29.690624Q466.54688 29.690624 465.73438 28.846874Q464.9375 28.003124 464.9375 26.4875Q464.9375 24.925 465.75 24.065624Q466.5625 23.190624 467.84375 23.190624Q469.09375 23.190624 469.875 24.034374Q470.67188 24.878124 470.67188 26.425Q470.67188 26.51875 470.67188 26.70625L466.03125 26.70625Q466.09375 27.7375 466.60938 28.284374Q467.125 28.815624 467.90625 28.815624Q468.48438 28.815624 468.89062 28.51875Q469.3125 28.20625 469.54688 27.55ZM466.09375 25.846874L469.5625 25.846874Q469.5 25.05 469.17188 24.659374Q468.65625 24.05 467.85938 24.05Q467.125 24.05 466.625 24.534374Q466.14062 25.01875 466.09375 25.846874ZM472.29688 29.55L472.29688 23.33125L473.23438 23.33125L473.23438 24.20625Q473.92188 23.190624 475.21875 23.190624Q475.78125 23.190624 476.25 23.39375Q476.73438 23.596874 476.96875 23.925Q477.20312 24.253124 477.29688 24.690624Q477.34375 24.9875 477.34375 25.721874L477.34375 29.55L476.29688 29.55L476.29688 25.76875Q476.29688 25.1125 476.17188 24.8Q476.04688 24.4875 475.73438 24.3Q475.42188 24.096874 475.0 24.096874Q474.32812 24.096874 473.82812 24.534374Q473.34375 24.95625 473.34375 26.14375L473.34375 29.55L472.29688 29.55ZM478.875 27.690624L479.90625 27.534374Q480.0 28.159374 480.39062 28.4875Q480.79688 28.815624 481.53125 28.815624Q482.25 28.815624 482.59375 28.534374Q482.95312 28.2375 482.95312 27.83125Q482.95312 27.471874 482.64062 27.26875Q482.42188 27.128124 481.5625 26.909374Q480.40625 26.6125 479.95312 26.409374Q479.51562 26.190624 479.28125 25.815624Q479.04688 25.440624 479.04688 24.971874Q479.04688 24.565624 479.23438 24.20625Q479.42188 23.846874 479.75 23.6125Q480.0 23.440624 480.42188 23.315624Q480.84375 23.190624 481.34375 23.190624Q482.0625 23.190624 482.60938 23.409374Q483.17188 23.6125 483.4375 23.971874Q483.70312 24.33125 483.79688 24.925L482.76562 25.065624Q482.70312 24.596874 482.35938 24.33125Q482.03125 24.05 481.40625 24.05Q480.6875 24.05 480.375 24.3Q480.0625 24.534374 480.0625 24.8625Q480.0625 25.065624 480.1875 25.221874Q480.32812 25.39375 480.59375 25.503124Q480.75 25.565624 481.53125 25.76875Q482.65625 26.08125 483.09375 26.26875Q483.53125 26.45625 483.78125 26.815624Q484.03125 27.175 484.03125 27.721874Q484.03125 28.253124 483.71875 28.721874Q483.42188 29.175 482.84375 29.440624Q482.26562 29.690624 481.53125 29.690624Q480.3125 29.690624 479.67188 29.190624Q479.04688 28.675 478.875 27.690624ZM486.29688 22.175L486.29688 20.95625L487.35938 20.95625L487.35938 22.175L486.29688 22.175ZM486.29688 29.55L486.29688 23.33125L487.35938 23.33125L487.35938 29.55L486.29688 29.55ZM488.90625 26.440624Q488.90625 24.70625 489.85938 23.878124Q490.65625 23.190624 491.8125 23.190624Q493.09375 23.190624 493.90625 24.034374Q494.73438 24.8625 494.73438 26.346874Q494.73438 27.55 494.375 28.2375Q494.01562 28.925 493.3125 29.315624Q492.625 29.690624 491.8125 29.690624Q490.51562 29.690624 489.70312 28.8625Q488.90625 28.01875 488.90625 26.440624ZM489.98438 26.440624Q489.98438 27.628124 490.5 28.221874Q491.03125 28.815624 491.8125 28.815624Q492.60938 28.815624 493.125 28.221874Q493.64062 27.628124 493.64062 26.409374Q493.64062 25.253124 493.10938 24.659374Q492.59375 24.065624 491.8125 24.065624Q491.03125 24.065624 490.5 24.659374Q489.98438 25.2375 489.98438 26.440624ZM496.29688 29.55L496.29688 23.33125L497.23438 23.33125L497.23438 24.20625Q497.92188 23.190624 499.21875 23.190624Q499.78125 23.190624 500.25 23.39375Q500.73438 23.596874 500.96875 23.925Q501.20312 24.253124 501.29688 24.690624Q501.34375 24.9875 501.34375 25.721874L501.34375 29.55L500.29688 29.55L500.29688 25.76875Q500.29688 25.1125 500.17188 24.8Q500.04688 24.4875 499.73438 24.3Q499.42188 24.096874 499.0 24.096874Q498.32812 24.096874 497.82812 24.534374Q497.34375 24.95625 497.34375 26.14375L497.34375 29.55L496.29688 29.55ZM510.35938 27.26875L511.39062 27.409374Q511.21875 28.471874 510.51562 29.08125Q509.8125 29.690624 508.79688 29.690624Q507.51562 29.690624 506.73438 28.8625Q505.96875 28.01875 505.96875 26.45625Q505.96875 25.45625 506.29688 24.70625Q506.64062 23.940624 507.3125 23.565624Q508.0 23.190624 508.8125 23.190624Q509.8125 23.190624 510.45312 23.70625Q511.10938 24.20625 511.29688 25.159374L510.26562 25.315624Q510.125 24.690624 509.75 24.378124Q509.375 24.05 508.84375 24.05Q508.04688 24.05 507.54688 24.628124Q507.04688 25.190624 507.04688 26.425Q507.04688 27.690624 507.53125 28.253124Q508.01562 28.815624 508.78125 28.815624Q509.40625 28.815624 509.8125 28.440624Q510.23438 28.065624 510.35938 27.26875ZM512.2969 31.940624L512.2969 23.33125L513.25 23.33125L513.25 24.128124Q513.59375 23.659374 514.0156 23.425Q514.4531 23.190624 515.0625 23.190624Q515.8594 23.190624 516.46875 23.596874Q517.0781 24.003124 517.375 24.753124Q517.6875 25.503124 517.6875 26.39375Q517.6875 27.346874 517.34375 28.1125Q517.0156 28.878124 516.3594 29.284374Q515.7031 29.690624 514.9844 29.690624Q514.4531 29.690624 514.03125 29.471874Q513.6094 29.2375 513.34375 28.909374L513.34375 31.940624L512.2969 31.940624ZM513.25 26.471874Q513.25 27.675 513.7344 28.253124Q514.21875 28.815624 514.90625 28.815624Q515.6094 28.815624 516.1094 28.221874Q516.6094 27.628124 516.6094 26.378124Q516.6094 25.190624 516.125 24.6125Q515.6406 24.01875 514.9531 24.01875Q514.28125 24.01875 513.7656 24.64375Q513.25 25.26875 513.25 26.471874ZM523.375 29.55L523.375 28.628124Q522.6406 29.690624 521.3906 29.690624Q520.84375 29.690624 520.3594 29.4875Q519.8906 29.26875 519.65625 28.95625Q519.4219 28.628124 519.3281 28.159374Q519.2656 27.8625 519.2656 27.175L519.2656 23.33125L520.3281 23.33125L520.3281 26.784374Q520.3281 27.596874 520.3906 27.89375Q520.4844 28.3 520.7969 28.55Q521.125 28.784374 521.6094 28.784374Q522.0781 28.784374 522.4844 28.55Q522.90625 28.3 523.0781 27.878124Q523.2656 27.45625 523.2656 26.659374L523.2656 23.33125L524.3125 23.33125L524.3125 29.55L523.375 29.55Z" fill-rule="nonzero"/><path stroke="#ff0000" stroke-width="4.0" stroke-linecap="butt" stroke-dasharray="13.0,9.0" d="M214.5 43.55L249.5 43.55" fill-rule="nonzero"/><path fill="#1a1a1a" d="M262.35938 46.784374Q261.76562 47.284374 261.21875 47.4875Q260.6875 47.690624 260.0625 47.690624Q259.03125 47.690624 258.48438 47.190624Q257.9375 46.690624 257.9375 45.909374Q257.9375 45.45625 258.14062 45.08125Q258.34375 44.690624 258.6875 44.471874Q259.03125 44.2375 259.45312 44.128124Q259.75 44.034374 260.39062 43.95625Q261.65625 43.815624 262.26562 43.596874Q262.26562 43.378124 262.26562 43.33125Q262.26562 42.675 261.96875 42.409374Q261.5625 42.065624 260.76562 42.065624Q260.03125 42.065624 259.67188 42.33125Q259.3125 42.58125 259.14062 43.2375L258.10938 43.096874Q258.25 42.440624 258.57812 42.034374Q258.90625 41.628124 259.51562 41.409374Q260.125 41.190624 260.92188 41.190624Q261.71875 41.190624 262.21875 41.378124Q262.71875 41.565624 262.95312 41.846874Q263.1875 42.128124 263.28125 42.565624Q263.32812 42.83125 263.32812 43.534374L263.32812 44.940624Q263.32812 46.409374 263.39062 46.8Q263.46875 47.190624 263.67188 47.55L262.5625 47.55Q262.40625 47.221874 262.35938 46.784374ZM262.26562 44.425Q261.6875 44.659374 260.54688 44.83125Q259.89062 44.925 259.625 45.05Q259.35938 45.159374 259.20312 45.378124Q259.0625 45.596874 259.0625 45.878124Q259.0625 46.3 259.375 46.58125Q259.70312 46.8625 260.3125 46.8625Q260.92188 46.8625 261.39062 46.596874Q261.875 46.33125 262.09375 45.8625Q262.26562 45.503124 262.26562 44.815624L262.26562 44.425ZM265.26562 47.55L265.26562 38.95625L266.32812 38.95625L266.32812 47.55L265.26562 47.55ZM268.26562 47.55L268.26562 38.95625L269.32812 38.95625L269.32812 47.55L268.26562 47.55ZM270.90625 44.440624Q270.90625 42.70625 271.85938 41.878124Q272.65625 41.190624 273.8125 41.190624Q275.09375 41.190624 275.90625 42.034374Q276.73438 42.8625 276.73438 44.346874Q276.73438 45.55 276.375 46.2375Q276.01562 46.925 275.3125 47.315624Q274.625 47.690624 273.8125 47.690624Q272.51562 47.690624 271.70312 46.8625Q270.90625 46.01875 270.90625 44.440624ZM271.98438 44.440624Q271.98438 45.628124 272.5 46.221874Q273.03125 46.815624 273.8125 46.815624Q274.60938 46.815624 275.125 46.221874Q275.64062 45.628124 275.64062 44.409374Q275.64062 43.253124 275.10938 42.659374Q274.59375 42.065624 273.8125 42.065624Q273.03125 42.065624 272.5 42.659374Q271.98438 43.2375 271.98438 44.440624ZM279.4375 47.55L277.53125 41.33125L278.625 41.33125L279.60938 44.925L279.98438 46.253124Q280.01562 46.159374 280.3125 44.971874L281.29688 41.33125L282.375 41.33125L283.3125 44.940624L283.625 46.128124L283.98438 44.925L285.04688 41.33125L286.07812 41.33125L284.125 47.55L283.03125 47.55L282.04688 43.815624L281.79688 42.76875L280.54688 47.55L279.4375 47.55ZM286.875 44.971874L286.875 43.909374L290.125 43.909374L290.125 44.971874L286.875 44.971874ZM295.35938 46.784374Q294.76562 47.284374 294.21875 47.4875Q293.6875 47.690624 293.0625 47.690624Q292.03125 47.690624 291.48438 47.190624Q290.9375 46.690624 290.9375 45.909374Q290.9375 45.45625 291.14062 45.08125Q291.34375 44.690624 291.6875 44.471874Q292.03125 44.2375 292.45312 44.128124Q292.75 44.034374 293.39062 43.95625Q294.65625 43.815624 295.26562 43.596874Q295.26562 43.378124 295.26562 43.33125Q295.26562 42.675 294.96875 42.409374Q294.5625 42.065624 293.76562 42.065624Q293.03125 42.065624 292.67188 42.33125Q292.3125 42.58125 292.14062 43.2375L291.10938 43.096874Q291.25 42.440624 291.57812 42.034374Q291.90625 41.628124 292.51562 41.409374Q293.125 41.190624 293.92188 41.190624Q294.71875 41.190624 295.21875 41.378124Q295.71875 41.565624 295.95312 41.846874Q296.1875 42.128124 296.28125 42.565624Q296.32812 42.83125 296.32812 43.534374L296.32812 44.940624Q296.32812 46.409374 296.39062 46.8Q296.46875 47.190624 296.67188 47.55L295.5625 47.55Q295.40625 47.221874 295.35938 46.784374ZM295.26562 44.425Q294.6875 44.659374 293.54688 44.83125Q292.89062 44.925 292.625 45.05Q292.35938 45.159374 292.20312 45.378124Q292.0625 45.596874 292.0625 45.878124Q292.0625 46.3 292.375 46.58125Q292.70312 46.8625 293.3125 46.8625Q293.92188 46.8625 294.39062 46.596874Q294.875 46.33125 295.09375 45.8625Q295.26562 45.503124 295.26562 44.815624L295.26562 44.425ZM298.26562 47.55L298.26562 38.95625L299.32812 38.95625L299.32812 47.55L298.26562 47.55ZM301.26562 47.55L301.26562 38.95625L302.32812 38.95625L302.32812 47.55L301.26562 47.55ZM303.875 44.971874L303.875 43.909374L307.125 43.909374L307.125 44.971874L303.875 44.971874ZM312.54688 45.55L313.64062 45.675Q313.39062 46.628124 312.6875 47.159374Q311.98438 47.690624 310.90625 47.690624Q309.54688 47.690624 308.73438 46.846874Q307.9375 46.003124 307.9375 44.4875Q307.9375 42.925 308.75 42.065624Q309.5625 41.190624 310.84375 41.190624Q312.09375 41.190624 312.875 42.034374Q313.67188 42.878124 313.67188 44.425Q313.67188 44.51875 313.67188 44.70625L309.03125 44.70625Q309.09375 45.7375 309.60938 46.284374Q310.125 46.815624 310.90625 46.815624Q311.48438 46.815624 311.89062 46.51875Q312.3125 46.20625 312.54688 45.55ZM309.09375 43.846874L312.5625 43.846874Q312.5 43.05 312.17188 42.659374Q311.65625 42.05 310.85938 42.05Q310.125 42.05 309.625 42.534374Q309.14062 43.01875 309.09375 43.846874ZM314.59375 47.55L316.85938 44.315624L314.76562 41.33125L316.07812 41.33125L317.03125 42.784374Q317.29688 43.20625 317.46875 43.4875Q317.71875 43.096874 317.9375 42.8L318.98438 41.33125L320.25 41.33125L318.09375 44.253124L320.40625 47.55L319.125 47.55L317.84375 45.6125L317.5 45.096874L315.85938 47.55L314.59375 47.55ZM322.59375 46.6125L322.75 47.534374Q322.29688 47.628124 321.95312 47.628124Q321.375 47.628124 321.0625 47.45625Q320.75 47.26875 320.60938 46.971874Q320.48438 46.675 320.48438 45.721874L320.48438 42.14375L319.71875 42.14375L319.71875 41.33125L320.48438 41.33125L320.48438 39.784374L321.53125 39.159374L321.53125 41.33125L322.59375 41.33125L322.59375 42.14375L321.53125 42.14375L321.53125 45.784374Q321.53125 46.2375 321.57812 46.3625Q321.64062 46.4875 321.76562 46.565624Q321.89062 46.64375 322.125 46.64375Q322.3125 46.64375 322.59375 46.6125ZM327.54688 45.55L328.64062 45.675Q328.39062 46.628124 327.6875 47.159374Q326.98438 47.690624 325.90625 47.690624Q324.54688 47.690624 323.73438 46.846874Q322.9375 46.003124 322.9375 44.4875Q322.9375 42.925 323.75 42.065624Q324.5625 41.190624 325.84375 41.190624Q327.09375 41.190624 327.875 42.034374Q328.67188 42.878124 328.67188 44.425Q328.67188 44.51875 328.67188 44.70625L324.03125 44.70625Q324.09375 45.7375 324.60938 46.284374Q325.125 46.815624 325.90625 46.815624Q326.48438 46.815624 326.89062 46.51875Q327.3125 46.20625 327.54688 45.55ZM324.09375 43.846874L327.5625 43.846874Q327.5 43.05 327.17188 42.659374Q326.65625 42.05 325.85938 42.05Q325.125 42.05 324.625 42.534374Q324.14062 43.01875 324.09375 43.846874ZM330.29688 47.55L330.29688 41.33125L331.23438 41.33125L331.23438 42.20625Q331.92188 41.190624 333.21875 41.190624Q333.78125 41.190624 334.25 41.39375Q334.73438 41.596874 334.96875 41.925Q335.20312 42.253124 335.29688 42.690624Q335.34375 42.9875 335.34375 43.721874L335.34375 47.55L334.29688 47.55L334.29688 43.76875Q334.29688 43.1125 334.17188 42.8Q334.04688 42.4875 333.73438 42.3Q333.42188 42.096874 333.0 42.096874Q332.32812 42.096874 331.82812 42.534374Q331.34375 42.95625 331.34375 44.14375L331.34375 47.55L330.29688 47.55ZM336.875 45.690624L337.90625 45.534374Q338.0 46.159374 338.39062 46.4875Q338.79688 46.815624 339.53125 46.815624Q340.25 46.815624 340.59375 46.534374Q340.95312 46.2375 340.95312 45.83125Q340.95312 45.471874 340.64062 45.26875Q340.42188 45.128124 339.5625 44.909374Q338.40625 44.6125 337.95312 44.409374Q337.51562 44.190624 337.28125 43.815624Q337.04688 43.440624 337.04688 42.971874Q337.04688 42.565624 337.23438 42.20625Q337.42188 41.846874 337.75 41.6125Q338.0 41.440624 338.42188 41.315624Q338.84375 41.190624 339.34375 41.190624Q340.0625 41.190624 340.60938 41.409374Q341.17188 41.6125 341.4375 41.971874Q341.70312 42.33125 341.79688 42.925L340.76562 43.065624Q340.70312 42.596874 340.35938 42.33125Q340.03125 42.05 339.40625 42.05Q338.6875 42.05 338.375 42.3Q338.0625 42.534374 338.0625 42.8625Q338.0625 43.065624 338.1875 43.221874Q338.32812 43.39375 338.59375 43.503124Q338.75 43.565624 339.53125 43.76875Q340.65625 44.08125 341.09375 44.26875Q341.53125 44.45625 341.78125 44.815624Q342.03125 45.175 342.03125 45.721874Q342.03125 46.253124 341.71875 46.721874Q341.42188 47.175 340.84375 47.440624Q340.26562 47.690624 339.53125 47.690624Q338.3125 47.690624 337.67188 47.190624Q337.04688 46.675 336.875 45.690624ZM344.29688 40.175L344.29688 38.95625L345.35938 38.95625L345.35938 40.175L344.29688 40.175ZM344.29688 47.55L344.29688 41.33125L345.35938 41.33125L345.35938 47.55L344.29688 47.55ZM346.90625 44.440624Q346.90625 42.70625 347.85938 41.878124Q348.65625 41.190624 349.8125 41.190624Q351.09375 41.190624 351.90625 42.034374Q352.73438 42.8625 352.73438 44.346874Q352.73438 45.55 352.375 46.2375Q352.01562 46.925 351.3125 47.315624Q350.625 47.690624 349.8125 47.690624Q348.51562 47.690624 347.70312 46.8625Q346.90625 46.01875 346.90625 44.440624ZM347.98438 44.440624Q347.98438 45.628124 348.5 46.221874Q349.03125 46.815624 349.8125 46.815624Q350.60938 46.815624 351.125 46.221874Q351.64062 45.628124 351.64062 44.409374Q351.64062 43.253124 351.10938 42.659374Q350.59375 42.065624 349.8125 42.065624Q349.03125 42.065624 348.5 42.659374Q347.98438 43.2375 347.98438 44.440624ZM354.29688 47.55L354.29688 41.33125L355.23438 41.33125L355.23438 42.20625Q355.92188 41.190624 357.21875 41.190624Q357.78125 41.190624 358.25 41.39375Q358.73438 41.596874 358.96875 41.925Q359.20312 42.253124 359.29688 42.690624Q359.34375 42.9875 359.34375 43.721874L359.34375 47.55L358.29688 47.55L358.29688 43.76875Q358.29688 43.1125 358.17188 42.8Q358.04688 42.4875 357.73438 42.3Q357.42188 42.096874 357.0 42.096874Q356.32812 42.096874 355.82812 42.534374Q355.34375 42.95625 355.34375 44.14375L355.34375 47.55L354.29688 47.55ZM364.28125 47.55L364.28125 41.33125L365.23438 41.33125L365.23438 42.26875Q365.59375 41.6125 365.89062 41.409374Q366.20312 41.190624 366.57812 41.190624Q367.10938 41.190624 367.65625 41.51875L367.29688 42.503124Q366.90625 42.26875 366.53125 42.26875Q366.17188 42.26875 365.89062 42.4875Q365.625 42.690624 365.51562 43.065624Q365.32812 43.628124 365.32812 44.284374L365.32812 47.55L364.28125 47.55ZM372.35938 46.784374Q371.76562 47.284374 371.21875 47.4875Q370.6875 47.690624 370.0625 47.690624Q369.03125 47.690624 368.48438 47.190624Q367.9375 46.690624 367.9375 45.909374Q367.9375 45.45625 368.14062 45.08125Q368.34375 44.690624 368.6875 44.471874Q369.03125 44.2375 369.45312 44.128124Q369.75 44.034374 370.39062 43.95625Q371.65625 43.815624 372.26562 43.596874Q372.26562 43.378124 372.26562 43.33125Q372.26562 42.675 371.96875 42.409374Q371.5625 42.065624 370.76562 42.065624Q370.03125 42.065624 369.67188 42.33125Q369.3125 42.58125 369.14062 43.2375L368.10938 43.096874Q368.25 42.440624 368.57812 42.034374Q368.90625 41.628124 369.51562 41.409374Q370.125 41.190624 370.92188 41.190624Q371.71875 41.190624 372.21875 41.378124Q372.71875 41.565624 372.95312 41.846874Q373.1875 42.128124 373.28125 42.565624Q373.32812 42.83125 373.32812 43.534374L373.32812 44.940624Q373.32812 46.409374 373.39062 46.8Q373.46875 47.190624 373.67188 47.55L372.5625 47.55Q372.40625 47.221874 372.35938 46.784374ZM372.26562 44.425Q371.6875 44.659374 370.54688 44.83125Q369.89062 44.925 369.625 45.05Q369.35938 45.159374 369.20312 45.378124Q369.0625 45.596874 369.0625 45.878124Q369.0625 46.3 369.375 46.58125Q369.70312 46.8625 370.3125 46.8625Q370.92188 46.8625 371.39062 46.596874Q371.875 46.33125 372.09375 45.8625Q372.26562 45.503124 372.26562 44.815624L372.26562 44.425ZM375.29688 47.55L375.29688 41.33125L376.23438 41.33125L376.23438 42.20625Q376.53125 41.7375 377.01562 41.471874Q377.5 41.190624 378.125 41.190624Q378.8125 41.190624 379.25 41.471874Q379.70312 41.753124 379.875 42.26875Q380.625 41.190624 381.79688 41.190624Q382.73438 41.190624 383.21875 41.70625Q383.71875 42.20625 383.71875 43.284374L383.71875 47.55L382.67188 47.55L382.67188 43.628124Q382.67188 43.003124 382.5625 42.721874Q382.46875 42.440624 382.20312 42.26875Q381.9375 42.096874 381.5625 42.096874Q380.90625 42.096874 380.46875 42.534374Q380.04688 42.971874 380.04688 43.940624L380.04688 47.55L378.98438 47.55L378.98438 43.503124Q378.98438 42.8 378.71875 42.45625Q378.46875 42.096874 377.89062 42.096874Q377.4375 42.096874 377.0625 42.33125Q376.6875 42.565624 376.51562 43.01875Q376.34375 43.471874 376.34375 44.315624L376.34375 47.55L375.29688 47.55Z" fill-rule="nonzero"/></svg>